<svg xmlns="http://www.w3.org/2000/svg" width="259.767" height="251.991" viewBox="0 0 259.767 251.991">
  <g id="Grupo_456" data-name="Grupo 456" transform="translate(-1118.072 -3327.798)">
    <g id="Grupo_251" data-name="Grupo 251" transform="translate(-3655 -1685)">
      <path id="Trazado_674" data-name="Trazado 674" d="M609.627,463.59l-80.351-80.351a113.483,113.483,0,1,0,160.675.027Z" transform="translate(4309.756 4655.103)" fill="#7faad7"/>
      <g id="Grupo_187" data-name="Grupo 187" transform="translate(4773.072 5022.336)" opacity="0.55" style="mix-blend-mode: multiply;isolation: isolate">
        <path id="Trazado_178" data-name="Trazado 178" d="M551.954,617.515a96.08,96.08,0,1,1,88.941-59.523A96.165,96.165,0,0,1,551.954,617.515Z" transform="translate(-455.787 -375.062)" fill="#fff" opacity="0"/>
        <path id="Trazado_179" data-name="Trazado 179" d="M552.564,616.9a96.081,96.081,0,1,1,88.94-59.524A96.165,96.165,0,0,1,552.564,616.9Z" transform="translate(-455.901 -374.948)" fill="#fdfdfd" opacity="0.01"/>
        <path id="Trazado_180" data-name="Trazado 180" d="M553.174,616.295a96.082,96.082,0,1,1,88.94-59.524A96.166,96.166,0,0,1,553.174,616.295Z" transform="translate(-456.015 -374.834)" fill="#fcfcfc" opacity="0.02"/>
        <path id="Trazado_181" data-name="Trazado 181" d="M553.784,615.685a96.081,96.081,0,1,1,88.941-59.524A96.166,96.166,0,0,1,553.784,615.685Z" transform="translate(-456.129 -374.721)" fill="#fafafa" opacity="0.03"/>
        <path id="Trazado_182" data-name="Trazado 182" d="M554.394,615.075a96.081,96.081,0,1,1,88.94-59.524A96.166,96.166,0,0,1,554.394,615.075Z" transform="translate(-456.242 -374.607)" fill="#f9f9f9" opacity="0.04"/>
        <path id="Trazado_183" data-name="Trazado 183" d="M555,614.464a96.08,96.08,0,1,1,88.94-59.523A96.165,96.165,0,0,1,555,614.464Z" transform="translate(-456.357 -374.493)" fill="#f7f7f7" opacity="0.05"/>
        <path id="Trazado_184" data-name="Trazado 184" d="M555.615,613.854a96.083,96.083,0,1,1,88.94-59.523A96.165,96.165,0,0,1,555.615,613.854Z" transform="translate(-456.47 -374.379)" fill="#f6f6f6" opacity="0.059"/>
        <path id="Trazado_185" data-name="Trazado 185" d="M556.225,613.244a96.083,96.083,0,1,1,88.94-59.523A96.165,96.165,0,0,1,556.225,613.244Z" transform="translate(-456.584 -374.265)" fill="#f4f4f4" opacity="0.069"/>
        <path id="Trazado_186" data-name="Trazado 186" d="M556.835,612.634a96.083,96.083,0,1,1,88.94-59.523A96.165,96.165,0,0,1,556.835,612.634Z" transform="translate(-456.698 -374.151)" fill="#f3f3f3" opacity="0.079"/>
        <path id="Trazado_187" data-name="Trazado 187" d="M557.445,612.024a96.081,96.081,0,1,1,88.94-59.524A96.165,96.165,0,0,1,557.445,612.024Z" transform="translate(-456.812 -374.037)" fill="#f1f1f1" opacity="0.089"/>
        <path id="Trazado_188" data-name="Trazado 188" d="M558.055,611.414A96.081,96.081,0,1,1,647,551.89,96.166,96.166,0,0,1,558.055,611.414Z" transform="translate(-456.926 -373.923)" fill="#f0f0f0" opacity="0.099"/>
        <path id="Trazado_189" data-name="Trazado 189" d="M558.665,610.8a96.081,96.081,0,1,1,88.94-59.524A96.166,96.166,0,0,1,558.665,610.8Z" transform="translate(-457.04 -373.809)" fill="#eee" opacity="0.109"/>
        <path id="Trazado_190" data-name="Trazado 190" d="M559.275,610.194a96.081,96.081,0,1,1,88.94-59.524A96.166,96.166,0,0,1,559.275,610.194Z" transform="translate(-457.154 -373.696)" fill="#ededed" opacity="0.119"/>
        <path id="Trazado_191" data-name="Trazado 191" d="M559.886,609.584a96.081,96.081,0,1,1,88.94-59.524A96.165,96.165,0,0,1,559.886,609.584Z" transform="translate(-457.268 -373.582)" fill="#ebebeb" opacity="0.129"/>
        <path id="Trazado_192" data-name="Trazado 192" d="M560.5,608.973a96.083,96.083,0,1,1,88.94-59.523A96.165,96.165,0,0,1,560.5,608.973Z" transform="translate(-457.382 -373.468)" fill="#eaeaea" opacity="0.139"/>
        <path id="Trazado_193" data-name="Trazado 193" d="M561.106,608.363a96.083,96.083,0,1,1,88.94-59.523A96.165,96.165,0,0,1,561.106,608.363Z" transform="translate(-457.495 -373.354)" fill="#e8e8e8" opacity="0.149"/>
        <path id="Trazado_194" data-name="Trazado 194" d="M561.716,607.753a96.083,96.083,0,1,1,88.94-59.523A96.165,96.165,0,0,1,561.716,607.753Z" transform="translate(-457.609 -373.24)" fill="#e7e7e7" opacity="0.158"/>
        <path id="Trazado_195" data-name="Trazado 195" d="M562.326,607.143a96.081,96.081,0,1,1,88.94-59.523A96.165,96.165,0,0,1,562.326,607.143Z" transform="translate(-457.723 -373.126)" fill="#e5e5e5" opacity="0.168"/>
        <path id="Trazado_196" data-name="Trazado 196" d="M562.936,606.533a96.081,96.081,0,1,1,88.94-59.524A96.166,96.166,0,0,1,562.936,606.533Z" transform="translate(-457.837 -373.012)" fill="#e4e4e4" opacity="0.178"/>
        <path id="Trazado_197" data-name="Trazado 197" d="M563.546,605.923a96.081,96.081,0,1,1,88.94-59.524A96.166,96.166,0,0,1,563.546,605.923Z" transform="translate(-457.951 -372.898)" fill="#e2e2e2" opacity="0.188"/>
        <path id="Trazado_198" data-name="Trazado 198" d="M564.156,605.313a96.081,96.081,0,1,1,88.94-59.524A96.166,96.166,0,0,1,564.156,605.313Z" transform="translate(-458.065 -372.784)" fill="#e1e1e1" opacity="0.198"/>
        <path id="Trazado_199" data-name="Trazado 199" d="M564.766,604.7a96.081,96.081,0,1,1,88.941-59.524A96.165,96.165,0,0,1,564.766,604.7Z" transform="translate(-458.179 -372.671)" fill="#dfdfdf" opacity="0.208"/>
        <path id="Trazado_200" data-name="Trazado 200" d="M565.377,604.092a96.083,96.083,0,1,1,88.94-59.523A96.165,96.165,0,0,1,565.377,604.092Z" transform="translate(-458.293 -372.557)" fill="#dedede" opacity="0.218"/>
        <path id="Trazado_201" data-name="Trazado 201" d="M565.987,603.482a96.083,96.083,0,1,1,88.94-59.523A96.165,96.165,0,0,1,565.987,603.482Z" transform="translate(-458.407 -372.443)" fill="#dcdcdc" opacity="0.228"/>
        <path id="Trazado_202" data-name="Trazado 202" d="M566.6,602.872a96.083,96.083,0,1,1,88.94-59.523A96.165,96.165,0,0,1,566.6,602.872Z" transform="translate(-458.52 -372.329)" fill="#dbdbdb" opacity="0.238"/>
        <path id="Trazado_203" data-name="Trazado 203" d="M567.207,602.262a96.08,96.08,0,1,1,88.94-59.523A96.165,96.165,0,0,1,567.207,602.262Z" transform="translate(-458.634 -372.215)" fill="#d9d9d9" opacity="0.248"/>
        <path id="Trazado_204" data-name="Trazado 204" d="M567.817,601.652a96.082,96.082,0,1,1,88.94-59.524A96.166,96.166,0,0,1,567.817,601.652Z" transform="translate(-458.748 -372.101)" fill="#d8d8d8" opacity="0.257"/>
        <path id="Trazado_205" data-name="Trazado 205" d="M568.427,601.042a96.081,96.081,0,1,1,88.94-59.524A96.166,96.166,0,0,1,568.427,601.042Z" transform="translate(-458.862 -371.987)" fill="#d6d6d6" opacity="0.267"/>
        <path id="Trazado_206" data-name="Trazado 206" d="M569.037,600.432a96.081,96.081,0,1,1,88.94-59.524A96.166,96.166,0,0,1,569.037,600.432Z" transform="translate(-458.976 -371.873)" fill="#d5d5d5" opacity="0.277"/>
        <path id="Trazado_207" data-name="Trazado 207" d="M569.647,599.822a96.081,96.081,0,1,1,88.94-59.524A96.166,96.166,0,0,1,569.647,599.822Z" transform="translate(-459.09 -371.759)" fill="#d3d3d3" opacity="0.287"/>
        <path id="Trazado_208" data-name="Trazado 208" d="M570.258,599.211a96.083,96.083,0,1,1,88.94-59.523A96.165,96.165,0,0,1,570.258,599.211Z" transform="translate(-459.204 -371.646)" fill="#d2d2d2" opacity="0.297"/>
        <path id="Trazado_209" data-name="Trazado 209" d="M570.868,598.6a96.083,96.083,0,1,1,88.94-59.523A96.165,96.165,0,0,1,570.868,598.6Z" transform="translate(-459.318 -371.532)" fill="#d0d0d0" opacity="0.307"/>
        <path id="Trazado_210" data-name="Trazado 210" d="M571.478,597.991a96.083,96.083,0,1,1,88.94-59.523A96.165,96.165,0,0,1,571.478,597.991Z" transform="translate(-459.432 -371.418)" fill="#cfcfcf" opacity="0.317"/>
        <path id="Trazado_211" data-name="Trazado 211" d="M572.088,597.381a96.08,96.08,0,1,1,88.94-59.523A96.165,96.165,0,0,1,572.088,597.381Z" transform="translate(-459.545 -371.304)" fill="#cdcdcd" opacity="0.327"/>
        <path id="Trazado_212" data-name="Trazado 212" d="M572.7,596.771a96.081,96.081,0,1,1,88.94-59.524A96.165,96.165,0,0,1,572.7,596.771Z" transform="translate(-459.659 -371.19)" fill="#cbcbcb" opacity="0.337"/>
        <path id="Trazado_213" data-name="Trazado 213" d="M573.308,596.161a96.081,96.081,0,1,1,88.94-59.524A96.166,96.166,0,0,1,573.308,596.161Z" transform="translate(-459.773 -371.076)" fill="#cacaca" opacity="0.347"/>
        <path id="Trazado_214" data-name="Trazado 214" d="M573.918,595.551a96.081,96.081,0,1,1,88.941-59.524A96.166,96.166,0,0,1,573.918,595.551Z" transform="translate(-459.887 -370.962)" fill="#c8c8c8" opacity="0.356"/>
        <path id="Trazado_215" data-name="Trazado 215" d="M574.528,594.941a96.081,96.081,0,1,1,88.94-59.524A96.166,96.166,0,0,1,574.528,594.941Z" transform="translate(-460.001 -370.848)" fill="#c7c7c7" opacity="0.366"/>
        <path id="Trazado_216" data-name="Trazado 216" d="M575.139,594.33a96.083,96.083,0,1,1,88.94-59.523A96.165,96.165,0,0,1,575.139,594.33Z" transform="translate(-460.115 -370.734)" fill="#c5c5c5" opacity="0.376"/>
        <path id="Trazado_217" data-name="Trazado 217" d="M575.749,593.72a96.083,96.083,0,1,1,88.94-59.523A96.165,96.165,0,0,1,575.749,593.72Z" transform="translate(-460.229 -370.62)" fill="#c4c4c4" opacity="0.386"/>
        <path id="Trazado_218" data-name="Trazado 218" d="M576.359,593.11a96.083,96.083,0,1,1,88.94-59.523A96.165,96.165,0,0,1,576.359,593.11Z" transform="translate(-460.343 -370.506)" fill="#c2c2c2" opacity="0.396"/>
        <path id="Trazado_219" data-name="Trazado 219" d="M576.969,592.5a96.083,96.083,0,1,1,88.94-59.523A96.165,96.165,0,0,1,576.969,592.5Z" transform="translate(-460.457 -370.393)" fill="#c1c1c1" opacity="0.406"/>
        <path id="Trazado_220" data-name="Trazado 220" d="M577.579,591.89a96.081,96.081,0,1,1,88.941-59.524A96.165,96.165,0,0,1,577.579,591.89Z" transform="translate(-460.57 -370.279)" fill="#bfbfbf" opacity="0.416"/>
        <path id="Trazado_221" data-name="Trazado 221" d="M578.189,591.28a96.081,96.081,0,1,1,88.94-59.524A96.166,96.166,0,0,1,578.189,591.28Z" transform="translate(-460.684 -370.165)" fill="#bebebe" opacity="0.426"/>
        <path id="Trazado_222" data-name="Trazado 222" d="M578.8,590.67a96.082,96.082,0,1,1,88.94-59.524A96.166,96.166,0,0,1,578.8,590.67Z" transform="translate(-460.798 -370.051)" fill="#bcbcbc" opacity="0.436"/>
        <path id="Trazado_223" data-name="Trazado 223" d="M579.409,590.06a96.081,96.081,0,1,1,88.94-59.524A96.166,96.166,0,0,1,579.409,590.06Z" transform="translate(-460.912 -369.937)" fill="#bbb" opacity="0.446"/>
        <path id="Trazado_224" data-name="Trazado 224" d="M580.02,589.449a96.08,96.08,0,1,1,88.94-59.523A96.165,96.165,0,0,1,580.02,589.449Z" transform="translate(-461.026 -369.823)" fill="#b9b9b9" opacity="0.455"/>
        <path id="Trazado_225" data-name="Trazado 225" d="M580.63,588.839a96.083,96.083,0,1,1,88.94-59.523A96.165,96.165,0,0,1,580.63,588.839Z" transform="translate(-461.14 -369.709)" fill="#b8b8b8" opacity="0.465"/>
        <path id="Trazado_226" data-name="Trazado 226" d="M581.24,588.229a96.083,96.083,0,1,1,88.94-59.523A96.165,96.165,0,0,1,581.24,588.229Z" transform="translate(-461.254 -369.595)" fill="#b6b6b6" opacity="0.475"/>
        <path id="Trazado_227" data-name="Trazado 227" d="M581.85,587.619A96.083,96.083,0,1,1,670.79,528.1,96.165,96.165,0,0,1,581.85,587.619Z" transform="translate(-461.368 -369.481)" fill="#b5b5b5" opacity="0.485"/>
        <path id="Trazado_228" data-name="Trazado 228" d="M582.46,587.009a96.081,96.081,0,1,1,88.94-59.523A96.165,96.165,0,0,1,582.46,587.009Z" transform="translate(-461.482 -369.368)" fill="#b3b3b3" opacity="0.495"/>
        <path id="Trazado_229" data-name="Trazado 229" d="M583.07,586.4a96.081,96.081,0,1,1,88.94-59.524A96.166,96.166,0,0,1,583.07,586.4Z" transform="translate(-461.596 -369.254)" fill="#b2b2b2" opacity="0.505"/>
        <path id="Trazado_230" data-name="Trazado 230" d="M583.68,585.789a96.081,96.081,0,1,1,88.94-59.524A96.166,96.166,0,0,1,583.68,585.789Z" transform="translate(-461.709 -369.14)" fill="#b0b0b0" opacity="0.515"/>
        <path id="Trazado_231" data-name="Trazado 231" d="M584.29,585.179a96.081,96.081,0,1,1,88.94-59.524A96.166,96.166,0,0,1,584.29,585.179Z" transform="translate(-461.823 -369.026)" fill="#afafaf" opacity="0.525"/>
        <path id="Trazado_232" data-name="Trazado 232" d="M584.9,584.569a96.081,96.081,0,1,1,88.941-59.524A96.165,96.165,0,0,1,584.9,584.569Z" transform="translate(-461.937 -368.912)" fill="#adadad" opacity="0.535"/>
        <path id="Trazado_233" data-name="Trazado 233" d="M585.511,583.958a96.083,96.083,0,1,1,88.94-59.523A96.165,96.165,0,0,1,585.511,583.958Z" transform="translate(-462.051 -368.798)" fill="#acacac" opacity="0.545"/>
        <path id="Trazado_234" data-name="Trazado 234" d="M586.121,583.348a96.083,96.083,0,1,1,88.94-59.523A96.165,96.165,0,0,1,586.121,583.348Z" transform="translate(-462.165 -368.684)" fill="#aaa" opacity="0.554"/>
        <path id="Trazado_235" data-name="Trazado 235" d="M586.731,582.738a96.083,96.083,0,1,1,88.94-59.523A96.165,96.165,0,0,1,586.731,582.738Z" transform="translate(-462.279 -368.57)" fill="#a9a9a9" opacity="0.564"/>
        <path id="Trazado_236" data-name="Trazado 236" d="M587.341,582.128a96.08,96.08,0,1,1,88.94-59.523A96.165,96.165,0,0,1,587.341,582.128Z" transform="translate(-462.393 -368.456)" fill="#a7a7a7" opacity="0.574"/>
        <path id="Trazado_237" data-name="Trazado 237" d="M587.951,581.518a96.081,96.081,0,1,1,88.94-59.524A96.166,96.166,0,0,1,587.951,581.518Z" transform="translate(-462.507 -368.342)" fill="#a6a6a6" opacity="0.584"/>
        <path id="Trazado_238" data-name="Trazado 238" d="M588.561,580.908a96.081,96.081,0,1,1,88.94-59.524A96.166,96.166,0,0,1,588.561,580.908Z" transform="translate(-462.621 -368.229)" fill="#a4a4a4" opacity="0.594"/>
        <path id="Trazado_239" data-name="Trazado 239" d="M589.171,580.3a96.081,96.081,0,1,1,88.94-59.524A96.166,96.166,0,0,1,589.171,580.3Z" transform="translate(-462.734 -368.115)" fill="#a3a3a3" opacity="0.604"/>
        <path id="Trazado_240" data-name="Trazado 240" d="M589.781,579.688a96.081,96.081,0,1,1,88.94-59.524A96.165,96.165,0,0,1,589.781,579.688Z" transform="translate(-462.848 -368.001)" fill="#a1a1a1" opacity="0.614"/>
        <path id="Trazado_241" data-name="Trazado 241" d="M590.392,579.077a96.083,96.083,0,1,1,88.94-59.523A96.165,96.165,0,0,1,590.392,579.077Z" transform="translate(-462.962 -367.887)" fill="#a0a0a0" opacity="0.624"/>
        <path id="Trazado_242" data-name="Trazado 242" d="M591,578.467a96.083,96.083,0,1,1,88.94-59.523A96.165,96.165,0,0,1,591,578.467Z" transform="translate(-463.076 -367.773)" fill="#9e9e9e" opacity="0.634"/>
        <path id="Trazado_243" data-name="Trazado 243" d="M591.612,577.857a96.083,96.083,0,1,1,88.94-59.523A96.165,96.165,0,0,1,591.612,577.857Z" transform="translate(-463.19 -367.659)" fill="#9d9d9d" opacity="0.644"/>
        <path id="Trazado_244" data-name="Trazado 244" d="M592.222,577.247a96.08,96.08,0,1,1,88.94-59.523A96.165,96.165,0,0,1,592.222,577.247Z" transform="translate(-463.304 -367.545)" fill="#9b9b9b" opacity="0.653"/>
        <path id="Trazado_245" data-name="Trazado 245" d="M592.832,576.637a96.081,96.081,0,1,1,88.94-59.524A96.165,96.165,0,0,1,592.832,576.637Z" transform="translate(-463.418 -367.431)" fill="#9a9a9a" opacity="0.663"/>
        <path id="Trazado_246" data-name="Trazado 246" d="M593.442,576.027a96.082,96.082,0,1,1,88.94-59.524A96.166,96.166,0,0,1,593.442,576.027Z" transform="translate(-463.532 -367.317)" fill="#989898" opacity="0.673"/>
        <path id="Trazado_247" data-name="Trazado 247" d="M594.052,575.417a96.081,96.081,0,1,1,88.94-59.524A96.166,96.166,0,0,1,594.052,575.417Z" transform="translate(-463.646 -367.204)" fill="#969696" opacity="0.683"/>
        <path id="Trazado_248" data-name="Trazado 248" d="M594.662,574.807a96.081,96.081,0,1,1,88.94-59.524A96.166,96.166,0,0,1,594.662,574.807Z" transform="translate(-463.759 -367.09)" fill="#959595" opacity="0.693"/>
        <path id="Trazado_249" data-name="Trazado 249" d="M595.273,574.2a96.083,96.083,0,1,1,88.94-59.523A96.165,96.165,0,0,1,595.273,574.2Z" transform="translate(-463.874 -366.976)" fill="#939393" opacity="0.703"/>
        <path id="Trazado_250" data-name="Trazado 250" d="M595.883,573.586a96.083,96.083,0,1,1,88.94-59.523A96.165,96.165,0,0,1,595.883,573.586Z" transform="translate(-463.987 -366.862)" fill="#929292" opacity="0.713"/>
        <path id="Trazado_251" data-name="Trazado 251" d="M596.493,572.976a96.083,96.083,0,1,1,88.94-59.523A96.165,96.165,0,0,1,596.493,572.976Z" transform="translate(-464.101 -366.748)" fill="#909090" opacity="0.723"/>
        <path id="Trazado_252" data-name="Trazado 252" d="M597.1,572.366a96.083,96.083,0,1,1,88.94-59.523A96.165,96.165,0,0,1,597.1,572.366Z" transform="translate(-464.215 -366.634)" fill="#8f8f8f" opacity="0.733"/>
        <path id="Trazado_253" data-name="Trazado 253" d="M597.713,571.756a96.081,96.081,0,1,1,88.94-59.524A96.165,96.165,0,0,1,597.713,571.756Z" transform="translate(-464.329 -366.52)" fill="#8d8d8d" opacity="0.743"/>
        <path id="Trazado_254" data-name="Trazado 254" d="M598.323,571.146a96.081,96.081,0,1,1,88.941-59.524A96.166,96.166,0,0,1,598.323,571.146Z" transform="translate(-464.443 -366.406)" fill="#8c8c8c" opacity="0.752"/>
        <path id="Trazado_255" data-name="Trazado 255" d="M598.933,570.536a96.081,96.081,0,1,1,88.94-59.524A96.166,96.166,0,0,1,598.933,570.536Z" transform="translate(-464.557 -366.292)" fill="#8a8a8a" opacity="0.762"/>
        <path id="Trazado_256" data-name="Trazado 256" d="M599.543,569.926a96.082,96.082,0,1,1,88.94-59.524A96.166,96.166,0,0,1,599.543,569.926Z" transform="translate(-464.671 -366.179)" fill="#898989" opacity="0.772"/>
        <path id="Trazado_257" data-name="Trazado 257" d="M600.154,569.315a96.08,96.08,0,1,1,88.94-59.523A96.165,96.165,0,0,1,600.154,569.315Z" transform="translate(-464.785 -366.065)" fill="#878787" opacity="0.782"/>
        <path id="Trazado_258" data-name="Trazado 258" d="M600.764,568.7a96.083,96.083,0,1,1,88.94-59.523A96.165,96.165,0,0,1,600.764,568.7Z" transform="translate(-464.899 -365.951)" fill="#868686" opacity="0.792"/>
        <path id="Trazado_259" data-name="Trazado 259" d="M601.374,568.095a96.083,96.083,0,1,1,88.94-59.523A96.165,96.165,0,0,1,601.374,568.095Z" transform="translate(-465.012 -365.837)" fill="#848484" opacity="0.802"/>
        <path id="Trazado_260" data-name="Trazado 260" d="M601.984,567.485a96.083,96.083,0,1,1,88.94-59.523A96.165,96.165,0,0,1,601.984,567.485Z" transform="translate(-465.126 -365.723)" fill="#838383" opacity="0.812"/>
        <path id="Trazado_261" data-name="Trazado 261" d="M602.594,566.875a96.081,96.081,0,1,1,88.94-59.524A96.165,96.165,0,0,1,602.594,566.875Z" transform="translate(-465.24 -365.609)" fill="#818181" opacity="0.822"/>
        <path id="Trazado_262" data-name="Trazado 262" d="M603.2,566.265a96.081,96.081,0,1,1,88.94-59.524A96.166,96.166,0,0,1,603.2,566.265Z" transform="translate(-465.354 -365.495)" fill="gray" opacity="0.832"/>
        <path id="Trazado_263" data-name="Trazado 263" d="M603.814,565.655a96.081,96.081,0,1,1,88.941-59.524A96.166,96.166,0,0,1,603.814,565.655Z" transform="translate(-465.468 -365.381)" fill="#7e7e7e" opacity="0.842"/>
        <path id="Trazado_264" data-name="Trazado 264" d="M604.424,565.045a96.082,96.082,0,1,1,88.94-59.524A96.166,96.166,0,0,1,604.424,565.045Z" transform="translate(-465.582 -365.267)" fill="#7d7d7d" opacity="0.851"/>
        <path id="Trazado_265" data-name="Trazado 265" d="M605.034,564.435a96.081,96.081,0,1,1,88.94-59.524A96.165,96.165,0,0,1,605.034,564.435Z" transform="translate(-465.696 -365.154)" fill="#7b7b7b" opacity="0.861"/>
        <path id="Trazado_266" data-name="Trazado 266" d="M605.645,563.824a96.083,96.083,0,1,1,88.94-59.523A96.165,96.165,0,0,1,605.645,563.824Z" transform="translate(-465.81 -365.04)" fill="#7a7a7a" opacity="0.871"/>
        <path id="Trazado_267" data-name="Trazado 267" d="M606.255,563.214a96.083,96.083,0,1,1,88.94-59.523A96.165,96.165,0,0,1,606.255,563.214Z" transform="translate(-465.924 -364.926)" fill="#787878" opacity="0.881"/>
        <path id="Trazado_268" data-name="Trazado 268" d="M606.865,562.6A96.083,96.083,0,1,1,695.8,503.08,96.165,96.165,0,0,1,606.865,562.6Z" transform="translate(-466.037 -364.812)" fill="#777" opacity="0.891"/>
        <path id="Trazado_269" data-name="Trazado 269" d="M607.475,561.994a96.08,96.08,0,1,1,88.941-59.523A96.165,96.165,0,0,1,607.475,561.994Z" transform="translate(-466.151 -364.698)" fill="#757575" opacity="0.901"/>
        <path id="Trazado_270" data-name="Trazado 270" d="M608.085,561.384a96.082,96.082,0,1,1,88.94-59.524A96.166,96.166,0,0,1,608.085,561.384Z" transform="translate(-466.265 -364.584)" fill="#747474" opacity="0.911"/>
        <path id="Trazado_271" data-name="Trazado 271" d="M608.695,560.774a96.082,96.082,0,1,1,88.94-59.524A96.166,96.166,0,0,1,608.695,560.774Z" transform="translate(-466.379 -364.47)" fill="#727272" opacity="0.921"/>
        <path id="Trazado_272" data-name="Trazado 272" d="M609.3,560.164a96.081,96.081,0,1,1,88.94-59.524A96.166,96.166,0,0,1,609.3,560.164Z" transform="translate(-466.493 -364.356)" fill="#717171" opacity="0.931"/>
        <path id="Trazado_273" data-name="Trazado 273" d="M609.915,559.554a96.081,96.081,0,1,1,88.94-59.524A96.165,96.165,0,0,1,609.915,559.554Z" transform="translate(-466.607 -364.242)" fill="#6f6f6f" opacity="0.941"/>
        <path id="Trazado_274" data-name="Trazado 274" d="M610.526,558.943a96.083,96.083,0,1,1,88.94-59.523A96.165,96.165,0,0,1,610.526,558.943Z" transform="translate(-466.721 -364.129)" fill="#6e6e6e" opacity="0.95"/>
        <path id="Trazado_275" data-name="Trazado 275" d="M611.136,558.333a96.083,96.083,0,1,1,88.94-59.523A96.165,96.165,0,0,1,611.136,558.333Z" transform="translate(-466.835 -364.015)" fill="#6c6c6c" opacity="0.96"/>
        <path id="Trazado_276" data-name="Trazado 276" d="M611.746,557.723a96.083,96.083,0,1,1,88.94-59.523A96.165,96.165,0,0,1,611.746,557.723Z" transform="translate(-466.949 -363.901)" fill="#6b6b6b" opacity="0.97"/>
        <path id="Trazado_277" data-name="Trazado 277" d="M612.356,557.113A96.08,96.08,0,1,1,701.3,497.59,96.165,96.165,0,0,1,612.356,557.113Z" transform="translate(-467.062 -363.787)" fill="#696969" opacity="0.98"/>
        <path id="Trazado_278" data-name="Trazado 278" d="M612.966,556.5a96.081,96.081,0,1,1,88.94-59.524A96.166,96.166,0,0,1,612.966,556.5Z" transform="translate(-467.176 -363.673)" fill="#686868" opacity="0.99"/>
        <path id="Trazado_279" data-name="Trazado 279" d="M613.576,555.893a96.081,96.081,0,1,1,88.94-59.524A96.166,96.166,0,0,1,613.576,555.893Z" transform="translate(-467.29 -363.559)" fill="#666"/>
      </g>
      <path id="Trazado_675" data-name="Trazado 675" d="M517.409,459.726a96.081,96.081,0,1,1,59.524,88.94A96.166,96.166,0,0,1,517.409,459.726Z" transform="translate(4305.782 4658.777)" fill="#fff"/>
      <g id="Grupo_189" data-name="Grupo 189" transform="translate(4844.521 5012.798)">
        <path id="Trazado_615" data-name="Trazado 615" d="M616.79,351.832l.021,1.345c-1.157.018-2.326.055-3.474.111l-.065-1.344C614.435,351.888,615.618,351.85,616.79,351.832Zm5.143.042c1.169.037,2.351.1,3.515.171l-.088,1.343c-1.148-.075-2.316-.132-3.471-.169Zm-13.791.442.129,1.34c-1.144.111-2.3.242-3.447.391l-.174-1.334C605.809,352.562,606.983,352.429,608.143,352.317Zm22.431.187c1.163.133,2.339.287,3.495.458l-.2,1.331c-1.141-.168-2.3-.32-3.451-.451Zm-31,1,.239,1.324c-1.135.2-2.28.431-3.4.673l-.283-1.316C597.26,353.941,598.42,353.712,599.569,353.5Zm39.569.334c1.148.227,2.307.477,3.445.743l-.306,1.31c-1.123-.262-2.268-.509-3.4-.734Zm-48.018,1.553.346,1.3c-1.111.3-2.234.617-3.338.952l-.39-1.287C588.857,356.017,589.994,355.692,591.12,355.392Zm56.442.481c1.122.32,2.257.665,3.371,1.024l-.412,1.281c-1.1-.355-2.22-.7-3.328-1.011Zm-64.709,2.1.453,1.267c-1.083.387-2.176.8-3.249,1.224l-.5-1.251C580.648,358.779,581.756,358.361,582.853,357.969Zm72.937.626c1.09.412,2.191.848,3.274,1.3l-.517,1.242c-1.07-.445-2.157-.876-3.232-1.282Zm-80.963,2.625.556,1.226c-1.052.477-2.108.978-3.138,1.488l-.6-1.205C572.692,362.211,573.761,361.7,574.827,361.219Zm88.937.767c1.061.5,2.122,1.03,3.156,1.564l-.618,1.195c-1.02-.527-2.068-1.047-3.115-1.544Zm-96.67,3.134.655,1.175c-1.007.562-2.019,1.148-3.006,1.741l-.693-1.153C565.05,366.282,566.074,365.689,567.094,365.12Zm104.337.9c1.011.586,2.026,1.2,3.016,1.818l-.713,1.14c-.978-.612-1.98-1.215-2.978-1.794Zm-111.723,3.62.749,1.118c-.959.642-1.919,1.309-2.854,1.981l-.786-1.092C557.765,370.967,558.737,370.292,559.708,369.641Zm119.034,1.03c.958.666,1.919,1.358,2.856,2.058l-.8,1.078c-.926-.69-1.876-1.374-2.821-2.032Zm-126.026,4.081.838,1.052c-.9.719-1.806,1.462-2.684,2.208L550,376.988C550.886,376.232,551.8,375.479,552.715,374.752Zm132.932,1.15c.9.744,1.806,1.512,2.68,2.283l-.89,1.009c-.863-.761-1.754-1.519-2.646-2.255Zm-139.485,4.513.921.982c-.841.789-1.681,1.6-2.5,2.419l-.952-.95C544.459,382.039,545.309,381.215,546.161,380.416ZM692.1,381.678q.62.6,1.231,1.214l-.953.95q-.6-.605-1.214-1.2Z" transform="translate(-543.634 -351.832)" fill="gray"/>
      </g>
      <g id="Grupo_414" data-name="Grupo 414" transform="translate(3953.191 4660.936)">
        <circle id="Elipse_7" data-name="Elipse 7" cx="43.92" cy="43.92" r="43.92" transform="translate(921.808 407.064)" fill="#7faad7"/>
        <g id="Grupo_415" data-name="Grupo 415">
          <g id="Grupo_414-2" data-name="Grupo 414">
            <path id="Trazado_968" data-name="Trazado 968" d="M955.271,459.179a1.772,1.772,0,0,1-.921-3.287,21.534,21.534,0,0,1,21.4-.512,1.771,1.771,0,0,1-1.691,3.113,17.992,17.992,0,0,0-17.869.428A1.77,1.77,0,0,1,955.271,459.179Z" fill="#fff"/>
            <path id="Trazado_969" data-name="Trazado 969" d="M981.52,448.944a1.751,1.751,0,0,1-.958-.282,27.857,27.857,0,0,0-29.339-.494,1.772,1.772,0,0,1-1.821-3.041,31.4,31.4,0,0,1,33.079.557,1.771,1.771,0,0,1-.961,3.26Z" fill="#fff"/>
            <path id="Trazado_970" data-name="Trazado 970" d="M986.272,437.586a1.761,1.761,0,0,1-.923-.261,38.136,38.136,0,0,0-39.261-.269,1.772,1.772,0,0,1-1.809-3.047,41.68,41.68,0,0,1,42.919.294,1.772,1.772,0,0,1-.926,3.283Z" fill="#fff"/>
          </g>
          <circle id="Elipse_37" data-name="Elipse 37" cx="5" cy="5" r="5" transform="translate(960.729 463.763)" fill="#fff"/>
        </g>
      </g>
    </g>
  </g>
</svg>
