<svg xmlns="http://www.w3.org/2000/svg" xmlns:xlink="http://www.w3.org/1999/xlink" width="950.051" height="927.917" viewBox="0 0 950.051 927.917"><defs><clipPath id="a"><path d="M93.329,247.107v-91h299v91Z" fill="none"/></clipPath><filter id="b" x="0" y="0" width="950.051" height="927.917" filterUnits="userSpaceOnUse"><feOffset dx="20" dy="20" input="SourceAlpha"/><feGaussianBlur stdDeviation="10" result="c"/><feFlood flood-color="#1d1b1b" flood-opacity="0.173"/><feComposite operator="in" in2="c"/><feComposite in="SourceGraphic"/></filter></defs><g transform="translate(-503 -4250.538)"><g transform="translate(419.671 4104.893)"><g clip-path="url(#a)"><line x1="57.496" y2="145.267" transform="translate(56.79 122.13)" fill="none" stroke="#231f20" stroke-miterlimit="10" stroke-width="1"/><line x1="57.496" y2="145.267" transform="translate(76.79 122.13)" fill="none" stroke="#231f20" stroke-miterlimit="10" stroke-width="1"/><line x1="57.496" y2="145.267" transform="translate(96.79 122.13)" fill="none" stroke="#231f20" stroke-miterlimit="10" stroke-width="1"/><line x1="57.496" y2="145.267" transform="translate(116.79 122.13)" fill="none" stroke="#231f20" stroke-miterlimit="10" stroke-width="1"/><line x1="57.496" y2="145.267" transform="translate(136.79 122.13)" fill="none" stroke="#231f20" stroke-miterlimit="10" stroke-width="1"/><line x1="57.496" y2="145.267" transform="translate(156.79 122.13)" fill="none" stroke="#231f20" stroke-miterlimit="10" stroke-width="1"/><line x1="57.496" y2="145.267" transform="translate(176.79 122.13)" fill="none" stroke="#231f20" stroke-miterlimit="10" stroke-width="1"/><line x1="57.496" y2="145.267" transform="translate(196.79 122.13)" fill="none" stroke="#231f20" stroke-miterlimit="10" stroke-width="1"/><line x1="57.496" y2="145.267" transform="translate(216.79 122.13)" fill="none" stroke="#231f20" stroke-miterlimit="10" stroke-width="1"/><line x1="57.496" y2="145.267" transform="translate(236.79 122.13)" fill="none" stroke="#231f20" stroke-miterlimit="10" stroke-width="1"/><line x1="57.496" y2="145.267" transform="translate(256.79 122.13)" fill="none" stroke="#231f20" stroke-miterlimit="10" stroke-width="1"/><line x1="57.496" y2="145.267" transform="translate(276.79 122.13)" fill="none" stroke="#231f20" stroke-miterlimit="10" stroke-width="1"/><line x1="57.496" y2="145.267" transform="translate(296.79 122.13)" fill="none" stroke="#231f20" stroke-miterlimit="10" stroke-width="1"/><line x1="57.496" y2="145.267" transform="translate(316.79 122.13)" fill="none" stroke="#231f20" stroke-miterlimit="10" stroke-width="1"/><line x1="57.496" y2="145.267" transform="translate(336.79 122.13)" fill="none" stroke="#231f20" stroke-miterlimit="10" stroke-width="1"/><line x1="57.496" y2="145.267" transform="translate(356.79 122.13)" fill="none" stroke="#231f20" stroke-miterlimit="10" stroke-width="1"/><line x1="57.496" y2="145.267" transform="translate(376.79 122.13)" fill="#fff" stroke="#000" stroke-miterlimit="10" stroke-width="1"/></g></g><rect width="890.051" height="92.703" transform="translate(513 4535.343)" fill="#fff"/><rect width="890.051" height="92.703" transform="translate(513 4355.852)" fill="#fff"/><rect width="890.051" height="92.702" transform="translate(513 4718.003)" fill="#fff"/><g transform="matrix(1, 0, 0, 1, 503, 4250.54)" filter="url(#b)"><rect width="890.051" height="867.916" transform="translate(10 10)" fill="#fff"/></g><rect width="890.051" height="92.703" transform="translate(513 4444.014)" fill="#e4e4e4"/><rect width="890.051" height="92.704" transform="translate(513 4626.673)" fill="#e4e4e4"/><rect width="890.051" height="92.703" transform="translate(513 4809.332)" fill="#f7f7f7"/><text transform="translate(535.264 4389.204)" fill="#818181" font-size="17" font-family="SegoeUI, Segoe UI" letter-spacing="0.075em"><tspan x="24.89" y="18">SERVICIO DE TRACKING</tspan></text><text transform="translate(535.264 4847.086)" fill="#818181" font-size="17" font-family="SegoeUI, Segoe UI" letter-spacing="0.075em"><tspan x="22.344" y="18">ACCESO A PLATAFORMA</tspan></text><text transform="translate(535.264 4478.047)" fill="#818181" font-size="17" font-family="SegoeUI, Segoe UI" letter-spacing="0.075em"><tspan x="49.189" y="18">BOTÓN DE AYUDA</tspan></text><text transform="translate(535.264 4752.386)" fill="#818181" font-size="17" font-family="SegoeUI, Segoe UI" letter-spacing="0.075em"><tspan x="91.709" y="18">SEGURO</tspan></text><text transform="translate(535.264 4556.127)" fill="#818181" font-size="17" font-family="SegoeUI, Segoe UI" letter-spacing="0.075em"><tspan x="38.046" y="18">ACCESO A INTERNET</tspan><tspan x="90.81" y="38.4">EN BASE</tspan></text><text transform="translate(535.264 4654.732)" fill="#818181" font-size="17" font-family="SegoeUI, Segoe UI" letter-spacing="0.075em"><tspan x="38.046" y="18">ACCESO A INTERNET</tspan><tspan x="74.193" y="38.4">EN REFUGIO</tspan></text><g transform="translate(810.633 4260.13)"><rect width="298.112" height="92.704" fill="#7faedb"/><path d="M685.76,227.344l-30.5,26.168-30.5-26.168Z" transform="translate(-507.055 -148.415)" fill="#7faedb"/></g><g transform="translate(1108.007 4260.13)"><rect width="298.115" height="92.704" fill="#51675a"/><path d="M990.359,227.344l-30.5,26.168-30.5-26.168Z" transform="translate(-811.65 -148.415)" fill="#51675a"/></g><text transform="translate(1107.919 4278.216)" fill="#fff" font-size="39.504" font-family="SegoeUI, Segoe UI"><tspan x="86.579" y="43">ANUAL</tspan></text><text transform="translate(811.125 4278.216)" fill="#fff" font-size="39.504" font-family="SegoeUI, Segoe UI"><tspan x="85.383" y="43">SIMPLE</tspan></text><g transform="translate(940.762 4564.689)"><path d="M675.34,477.378a18.927,18.927,0,1,0-18.927,18.928A18.927,18.927,0,0,0,675.34,477.378Z" transform="translate(-637.485 -458.452)" fill="#7faedb"/><path d="M649.415,478.8l5.253,5.252,9.84-12.3" transform="translate(-637.768 -458.767)" fill="none" stroke="#fff" stroke-miterlimit="10" stroke-width="3.371"/></g><g transform="translate(940.762 4473.894)"><path d="M675.34,384.378a18.927,18.927,0,1,0-18.927,18.928A18.927,18.927,0,0,0,675.34,384.378Z" transform="translate(-637.485 -365.452)" fill="#7faedb"/><path d="M649.415,385.8l5.253,5.252,9.84-12.3" transform="translate(-637.768 -365.767)" fill="none" stroke="#fff" stroke-miterlimit="10" stroke-width="3.371"/></g><g transform="translate(940.762 4655.094)"><path d="M675.34,569.98a18.927,18.927,0,1,0-18.927,18.926A18.928,18.928,0,0,0,675.34,569.98Z" transform="translate(-637.485 -551.052)" fill="#7faedb"/><path d="M649.415,571.4l5.253,5.252,9.84-12.3" transform="translate(-637.768 -551.367)" fill="none" stroke="#fff" stroke-miterlimit="10" stroke-width="3.371"/></g><g transform="translate(946.615 4754.44)"><path d="M669.629,665.885a13.074,13.074,0,1,0-13.073,13.075A13.074,13.074,0,0,0,669.629,665.885Z" transform="translate(-643.481 -652.81)" fill="#dc664a"/><line y1="8.269" x2="8.268" transform="translate(8.94 8.941)" fill="none" stroke="#fff" stroke-miterlimit="10" stroke-width="3.371"/><line x2="8.268" y2="8.269" transform="translate(8.94 8.941)" fill="none" stroke="#fff" stroke-miterlimit="10" stroke-width="3.371"/></g><g transform="translate(946.615 4848.164)"><path d="M669.629,761.885a13.074,13.074,0,1,0-13.073,13.075A13.074,13.074,0,0,0,669.629,761.885Z" transform="translate(-643.481 -748.81)" fill="#dc664a"/><line y1="8.269" x2="8.268" transform="translate(8.94 8.941)" fill="none" stroke="#fff" stroke-miterlimit="10" stroke-width="3.371"/><line x2="8.268" y2="8.269" transform="translate(8.94 8.941)" fill="none" stroke="#fff" stroke-miterlimit="10" stroke-width="3.371"/></g><g transform="translate(1237.53 4564.689)"><path d="M979.313,477.378a18.927,18.927,0,1,0-18.927,18.928A18.927,18.927,0,0,0,979.313,477.378Z" transform="translate(-941.459 -458.452)" fill="#51675a"/><path d="M953.389,478.8l5.254,5.252,9.839-12.3" transform="translate(-941.742 -458.767)" fill="none" stroke="#fff" stroke-miterlimit="10" stroke-width="3.371"/></g><g transform="translate(1237.53 4473.831)"><path d="M979.313,384.315a18.927,18.927,0,1,0-18.927,18.926A18.928,18.928,0,0,0,979.313,384.315Z" transform="translate(-941.459 -365.387)" fill="#51675a"/><path d="M953.389,385.74l5.254,5.254,9.839-12.3" transform="translate(-941.742 -365.702)" fill="none" stroke="#fff" stroke-miterlimit="10" stroke-width="3.371"/></g><g transform="translate(1237.53 4655.094)"><path d="M979.313,569.98a18.927,18.927,0,1,0-18.927,18.926A18.928,18.928,0,0,0,979.313,569.98Z" transform="translate(-941.459 -551.052)" fill="#51675a"/><path d="M953.389,571.4l5.254,5.252,9.839-12.3" transform="translate(-941.742 -551.367)" fill="none" stroke="#fff" stroke-miterlimit="10" stroke-width="3.371"/></g><g transform="translate(1237.53 4745.464)"><path d="M979.313,662.544a18.927,18.927,0,1,0-18.927,18.926A18.928,18.928,0,0,0,979.313,662.544Z" transform="translate(-941.459 -643.616)" fill="#51675a"/><path d="M953.389,663.969l5.254,5.252,9.839-12.3" transform="translate(-941.742 -643.931)" fill="none" stroke="#fff" stroke-miterlimit="10" stroke-width="3.371"/></g><g transform="translate(1238.137 4840.164)"><path d="M979.936,759.544a18.927,18.927,0,1,0-18.928,18.926A18.929,18.929,0,0,0,979.936,759.544Z" transform="translate(-942.081 -740.616)" fill="#51675a"/><path d="M954.012,760.969l5.254,5.252,9.839-12.3" transform="translate(-942.364 -740.931)" fill="none" stroke="#fff" stroke-miterlimit="10" stroke-width="3.371"/></g><line y2="775.62" transform="translate(810.504 4352.834)" fill="none" stroke="#818181" stroke-miterlimit="10" stroke-width="1.626"/><line y2="775.62" transform="translate(1107.912 4352.834)" fill="none" stroke="#818181" stroke-miterlimit="10" stroke-width="1.626"/><line y2="775.62" transform="translate(1404.138 4352.834)" fill="none" stroke="#818181" stroke-miterlimit="10" stroke-width="1.626"/><text transform="translate(908.059 4406.785) rotate(-0.281)" font-size="15" font-family="SegoeUI, Segoe UI" letter-spacing="0.075em"><tspan x="0" y="0">1 ASCENSO</tspan></text><text transform="translate(1203.781 4406.785) rotate(-0.281)" font-size="15" font-family="SegoeUI, Segoe UI" letter-spacing="0.075em"><tspan x="0" y="0">ILIMITADOS</tspan></text><text transform="translate(868.625 4979.15)" fill="#7faedb" font-size="49" font-family="SegoeUI, Segoe UI" letter-spacing="0.075em"><tspan x="0" y="0">12 US$</tspan></text><text transform="translate(1152.726 4979.15)" fill="#51675a" font-size="49" font-family="SegoeUI, Segoe UI" letter-spacing="0.075em"><tspan x="0" y="0">20 US$</tspan></text><rect width="177" height="43" rx="5" transform="translate(871 5035)" fill="#7faedb"/><rect width="177" height="43" rx="5" transform="translate(1169 5035)" fill="#51675a"/><text transform="translate(906 5060)" fill="#fff" font-size="16" font-family="OpenSans-Bold, Open Sans" font-weight="700"><tspan x="0" y="0">SUSCRIBIRME</tspan></text><text transform="translate(1203 5060)" fill="#fff" font-size="16" font-family="OpenSans-Bold, Open Sans" font-weight="700"><tspan x="0" y="0">SUSCRIBIRME</tspan></text></g></svg>