<svg xmlns="http://www.w3.org/2000/svg" width="294.466" height="462.986" viewBox="0 0 294.466 462.986"><g transform="translate(-72 -1950)"><g transform="translate(-1258.62 1785.066)"><g transform="translate(1496.575 281.915)" style="isolation:isolate"><text transform="translate(0 12)" fill="#707070" font-size="11" font-family="OpenSans-Bold, Open Sans" font-weight="700" style="isolation:isolate"><tspan x="0" y="0">BOTÓN DE AYUDA</tspan></text></g><g transform="translate(1370.95 281.915)" style="isolation:isolate"><text transform="translate(0 12)" fill="#707070" font-size="11" font-family="OpenSans-Bold, Open Sans" font-weight="700" style="isolation:isolate"><tspan x="0" y="0">TRACKING</tspan></text></g><path d="M1416.121,218.2l-37.429-37.429a52.862,52.862,0,1,0,74.845.013Z" transform="translate(-17.428 -8.459)" fill="#58655c"/><g transform="translate(1330.62 164.934)" opacity="0.55"><path d="M1375.335,304.567a44.757,44.757,0,1,1,41.43-27.727A44.756,44.756,0,0,1,1375.335,304.567Z" transform="translate(-1330.62 -191.709)" fill="rgba(255,255,255,0)"/><path d="M1375.829,304.065a44.757,44.757,0,1,1,41.43-27.727A44.756,44.756,0,0,1,1375.829,304.065Z" transform="translate(-1330.883 -191.44)" fill="#fcfcfc" opacity="0.01" style="isolation:isolate"/><path d="M1376.324,303.573a44.756,44.756,0,1,1,41.43-27.727A44.756,44.756,0,0,1,1376.324,303.573Z" transform="translate(-1331.147 -191.177)" fill="#fbfbfb" opacity="0.02" style="isolation:isolate"/><path d="M1376.822,303.077a44.756,44.756,0,1,1,41.43-27.727A44.756,44.756,0,0,1,1376.822,303.077Z" transform="translate(-1331.414 -190.912)" fill="#f9f9f9" opacity="0.03" style="isolation:isolate"/><path d="M1377.318,302.581a44.756,44.756,0,1,1,41.43-27.727A44.756,44.756,0,0,1,1377.318,302.581Z" transform="translate(-1331.679 -190.647)" fill="#f8f8f8" opacity="0.04" style="isolation:isolate"/><path d="M1377.81,302.085a44.757,44.757,0,1,1,41.43-27.727A44.756,44.756,0,0,1,1377.81,302.085Z" transform="translate(-1331.942 -190.383)" fill="#f6f6f6" opacity="0.05" style="isolation:isolate"/><path d="M1378.309,301.586a44.758,44.758,0,1,1,41.43-27.727A44.757,44.757,0,0,1,1378.309,301.586Z" transform="translate(-1332.208 -190.115)" fill="#f5f5f5" opacity="0.059" style="isolation:isolate"/><path d="M1378.805,301.09a44.758,44.758,0,1,1,41.43-27.727A44.757,44.757,0,0,1,1378.805,301.09Z" transform="translate(-1332.473 -189.85)" fill="#f3f3f3" opacity="0.069" style="isolation:isolate"/><path d="M1379.3,300.594a44.758,44.758,0,1,1,41.43-27.727A44.756,44.756,0,0,1,1379.3,300.594Z" transform="translate(-1332.738 -189.585)" fill="#f2f2f2" opacity="0.079" style="isolation:isolate"/><path d="M1379.8,300.1a44.757,44.757,0,1,1,41.43-27.727A44.756,44.756,0,0,1,1379.8,300.1Z" transform="translate(-1333.004 -189.322)" fill="#f0f0f0" opacity="0.089" style="isolation:isolate"/><path d="M1380.3,299.6a44.757,44.757,0,1,1,41.432-27.727A44.756,44.756,0,0,1,1380.3,299.6Z" transform="translate(-1333.272 -189.057)" fill="#efefef" opacity="0.099" style="isolation:isolate"/><path d="M1380.791,299.1a44.756,44.756,0,1,1,41.43-27.727A44.756,44.756,0,0,1,1380.791,299.1Z" transform="translate(-1333.534 -188.79)" fill="#ededed" opacity="0.109" style="isolation:isolate"/><path d="M1381.287,298.611a44.757,44.757,0,1,1,41.43-27.727A44.755,44.755,0,0,1,1381.287,298.611Z" transform="translate(-1333.799 -188.527)" fill="#ececec" opacity="0.119" style="isolation:isolate"/><path d="M1381.784,298.115a44.756,44.756,0,1,1,41.43-27.727A44.756,44.756,0,0,1,1381.784,298.115Z" transform="translate(-1334.064 -188.262)" fill="#eaeaea" opacity="0.129" style="isolation:isolate"/><path d="M1382.282,297.616a44.758,44.758,0,1,1,41.43-27.727A44.757,44.757,0,0,1,1382.282,297.616Z" transform="translate(-1334.33 -187.994)" fill="#e9e9e9" opacity="0.139" style="isolation:isolate"/><path d="M1382.775,297.12a44.758,44.758,0,1,1,41.43-27.727A44.756,44.756,0,0,1,1382.775,297.12Z" transform="translate(-1334.593 -187.729)" fill="#e7e7e7" opacity="0.149" style="isolation:isolate"/><path d="M1383.271,296.624A44.758,44.758,0,1,1,1424.7,268.9,44.757,44.757,0,0,1,1383.271,296.624Z" transform="translate(-1334.858 -187.464)" fill="#e6e6e6" opacity="0.158" style="isolation:isolate"/><path d="M1383.769,296.13A44.756,44.756,0,1,1,1425.2,268.4,44.757,44.757,0,0,1,1383.769,296.13Z" transform="translate(-1335.125 -187.201)" fill="#e4e4e4" opacity="0.168" style="isolation:isolate"/><path d="M1384.265,295.634a44.756,44.756,0,1,1,41.43-27.727A44.756,44.756,0,0,1,1384.265,295.634Z" transform="translate(-1335.39 -186.936)" fill="#e3e3e3" opacity="0.178" style="isolation:isolate"/><path d="M1384.761,295.138a44.756,44.756,0,1,1,41.43-27.727A44.755,44.755,0,0,1,1384.761,295.138Z" transform="translate(-1335.655 -186.671)" fill="#e1e1e1" opacity="0.188" style="isolation:isolate"/><path d="M1385.257,294.642a44.757,44.757,0,1,1,41.43-27.727A44.756,44.756,0,0,1,1385.257,294.642Z" transform="translate(-1335.92 -186.406)" fill="#e0e0e0" opacity="0.198" style="isolation:isolate"/><path d="M1385.754,294.142a44.756,44.756,0,1,1,41.43-27.727A44.756,44.756,0,0,1,1385.754,294.142Z" transform="translate(-1336.185 -186.139)" fill="#dedede" opacity="0.208" style="isolation:isolate"/><path d="M1386.249,293.646a44.758,44.758,0,1,1,41.43-27.727A44.756,44.756,0,0,1,1386.249,293.646Z" transform="translate(-1336.448 -185.873)" fill="#ddd" opacity="0.218" style="isolation:isolate"/><path d="M1386.744,293.15a44.758,44.758,0,1,1,41.43-27.727A44.757,44.757,0,0,1,1386.744,293.15Z" transform="translate(-1336.713 -185.608)" fill="#dbdbdb" opacity="0.228" style="isolation:isolate"/><path d="M1387.244,292.654a44.758,44.758,0,1,1,41.43-27.727A44.757,44.757,0,0,1,1387.244,292.654Z" transform="translate(-1336.98 -185.343)" fill="#dadada" opacity="0.238" style="isolation:isolate"/><path d="M1387.74,292.161a44.757,44.757,0,1,1,41.43-27.727A44.756,44.756,0,0,1,1387.74,292.161Z" transform="translate(-1337.247 -185.082)" fill="#d8d8d8" opacity="0.248" style="isolation:isolate"/><path d="M1388.234,291.663a44.757,44.757,0,1,1,41.43-27.727A44.756,44.756,0,0,1,1388.234,291.663Z" transform="translate(-1337.509 -184.815)" fill="#d7d7d7" opacity="0.257" style="isolation:isolate"/><path d="M1388.731,291.168a44.757,44.757,0,1,1,41.43-27.727A44.756,44.756,0,0,1,1388.731,291.168Z" transform="translate(-1337.775 -184.551)" fill="#d5d5d5" opacity="0.267" style="isolation:isolate"/><path d="M1389.227,290.672a44.756,44.756,0,1,1,41.43-27.727A44.756,44.756,0,0,1,1389.227,290.672Z" transform="translate(-1338.04 -184.286)" fill="#d4d4d4" opacity="0.277" style="isolation:isolate"/><path d="M1389.723,290.176a44.756,44.756,0,1,1,41.43-27.727A44.756,44.756,0,0,1,1389.723,290.176Z" transform="translate(-1338.305 -184.021)" fill="#d2d2d2" opacity="0.287" style="isolation:isolate"/><path d="M1390.219,289.676a44.758,44.758,0,1,1,41.43-27.727A44.757,44.757,0,0,1,1390.219,289.676Z" transform="translate(-1338.569 -183.753)" fill="#d1d1d1" opacity="0.297" style="isolation:isolate"/><path d="M1390.714,289.179a44.758,44.758,0,1,1,41.43-27.727A44.756,44.756,0,0,1,1390.714,289.179Z" transform="translate(-1338.834 -183.487)" fill="#cfcfcf" opacity="0.307" style="isolation:isolate"/><path d="M1391.21,288.684a44.758,44.758,0,1,1,41.43-27.727A44.757,44.757,0,0,1,1391.21,288.684Z" transform="translate(-1339.099 -183.223)" fill="#cecece" opacity="0.317" style="isolation:isolate"/><path d="M1391.71,288.191a44.757,44.757,0,1,1,41.43-27.727A44.756,44.756,0,0,1,1391.71,288.191Z" transform="translate(-1339.367 -182.961)" fill="#ccc" opacity="0.327" style="isolation:isolate"/><path d="M1392.207,287.694a44.757,44.757,0,1,1,41.43-27.727A44.756,44.756,0,0,1,1392.207,287.694Z" transform="translate(-1339.632 -182.695)" fill="#cacaca" opacity="0.337" style="isolation:isolate"/><path d="M1392.7,287.2a44.756,44.756,0,1,1,41.43-27.727A44.756,44.756,0,0,1,1392.7,287.2Z" transform="translate(-1339.896 -182.43)" fill="#c9c9c9" opacity="0.347" style="isolation:isolate"/><path d="M1393.2,286.7a44.757,44.757,0,1,1,41.43-27.727A44.756,44.756,0,0,1,1393.2,286.7Z" transform="translate(-1340.162 -182.165)" fill="#c7c7c7" opacity="0.356" style="isolation:isolate"/><path d="M1393.693,286.206a44.757,44.757,0,1,1,41.43-27.727A44.756,44.756,0,0,1,1393.693,286.206Z" transform="translate(-1340.426 -181.9)" fill="#c6c6c6" opacity="0.366" style="isolation:isolate"/><path d="M1394.188,285.707a44.758,44.758,0,1,1,41.43-27.727A44.757,44.757,0,0,1,1394.188,285.707Z" transform="translate(-1340.69 -181.632)" fill="#c4c4c4" opacity="0.376" style="isolation:isolate"/><path d="M1394.684,285.211a44.759,44.759,0,1,1,41.43-27.727A44.757,44.757,0,0,1,1394.684,285.211Z" transform="translate(-1340.955 -181.368)" fill="#c3c3c3" opacity="0.386" style="isolation:isolate"/><path d="M1395.18,284.715a44.758,44.758,0,1,1,41.43-27.727A44.756,44.756,0,0,1,1395.18,284.715Z" transform="translate(-1341.22 -181.103)" fill="#c1c1c1" opacity="0.396" style="isolation:isolate"/><path d="M1395.677,284.218a44.758,44.758,0,1,1,41.43-27.727A44.757,44.757,0,0,1,1395.677,284.218Z" transform="translate(-1341.485 -180.837)" fill="silver" opacity="0.406" style="isolation:isolate"/><path d="M1396.176,283.724A44.756,44.756,0,1,1,1437.606,256,44.756,44.756,0,0,1,1396.176,283.724Z" transform="translate(-1341.752 -180.574)" fill="#bebebe" opacity="0.416" style="isolation:isolate"/><path d="M1396.671,283.228A44.757,44.757,0,1,1,1438.1,255.5,44.756,44.756,0,0,1,1396.671,283.228Z" transform="translate(-1342.017 -180.309)" fill="#bdbdbd" opacity="0.426" style="isolation:isolate"/><path d="M1397.167,282.731A44.757,44.757,0,1,1,1438.6,255,44.757,44.757,0,0,1,1397.167,282.731Z" transform="translate(-1342.281 -180.043)" fill="#bbb" opacity="0.436" style="isolation:isolate"/><path d="M1397.663,282.236a44.757,44.757,0,1,1,41.43-27.727A44.756,44.756,0,0,1,1397.663,282.236Z" transform="translate(-1342.547 -179.779)" fill="#bababa" opacity="0.446" style="isolation:isolate"/><path d="M1398.161,281.74a44.757,44.757,0,1,1,41.43-27.727A44.756,44.756,0,0,1,1398.161,281.74Z" transform="translate(-1342.813 -179.515)" fill="#b8b8b8" opacity="0.455" style="isolation:isolate"/><path d="M1398.655,281.241a44.758,44.758,0,1,1,41.43-27.727A44.756,44.756,0,0,1,1398.655,281.241Z" transform="translate(-1343.076 -179.247)" fill="#b7b7b7" opacity="0.465" style="isolation:isolate"/><path d="M1399.15,280.745a44.758,44.758,0,1,1,41.43-27.727A44.757,44.757,0,0,1,1399.15,280.745Z" transform="translate(-1343.341 -178.982)" fill="#b5b5b5" opacity="0.475" style="isolation:isolate"/><path d="M1399.647,280.249a44.757,44.757,0,1,1,41.43-27.725A44.757,44.757,0,0,1,1399.647,280.249Z" transform="translate(-1343.606 -178.717)" fill="#b4b4b4" opacity="0.485" style="isolation:isolate"/><path d="M1400.144,279.754a44.757,44.757,0,1,1,41.43-27.727A44.756,44.756,0,0,1,1400.144,279.754Z" transform="translate(-1343.872 -178.454)" fill="#b2b2b2" opacity="0.495" style="isolation:isolate"/><path d="M1400.64,279.259a44.757,44.757,0,1,1,41.43-27.727A44.756,44.756,0,0,1,1400.64,279.259Z" transform="translate(-1344.137 -178.189)" fill="#b1b1b1" opacity="0.505" style="isolation:isolate"/><path d="M1401.137,278.762a44.756,44.756,0,1,1,41.43-27.727A44.756,44.756,0,0,1,1401.137,278.762Z" transform="translate(-1344.402 -177.924)" fill="#afafaf" opacity="0.515" style="isolation:isolate"/><path d="M1401.633,278.266a44.756,44.756,0,1,1,41.43-27.727A44.756,44.756,0,0,1,1401.633,278.266Z" transform="translate(-1344.667 -177.659)" fill="#aeaeae" opacity="0.525" style="isolation:isolate"/><path d="M1402.13,277.77a44.757,44.757,0,1,1,41.43-27.727A44.756,44.756,0,0,1,1402.13,277.77Z" transform="translate(-1344.933 -177.394)" fill="#acacac" opacity="0.535" style="isolation:isolate"/><path d="M1402.625,277.271a44.758,44.758,0,1,1,41.43-27.727A44.757,44.757,0,0,1,1402.625,277.271Z" transform="translate(-1345.196 -177.126)" fill="#ababab" opacity="0.545" style="isolation:isolate"/><path d="M1403.12,276.775a44.758,44.758,0,1,1,41.43-27.727A44.757,44.757,0,0,1,1403.12,276.775Z" transform="translate(-1345.461 -176.861)" fill="#a9a9a9" opacity="0.554" style="isolation:isolate"/><path d="M1403.616,276.279a44.758,44.758,0,1,1,41.43-27.727A44.756,44.756,0,0,1,1403.616,276.279Z" transform="translate(-1345.726 -176.596)" fill="#a8a8a8" opacity="0.564" style="isolation:isolate"/><path d="M1404.115,275.786a44.757,44.757,0,1,1,41.43-27.727A44.756,44.756,0,0,1,1404.115,275.786Z" transform="translate(-1345.994 -176.334)" fill="#a6a6a6" opacity="0.574" style="isolation:isolate"/><path d="M1404.61,275.289a44.757,44.757,0,1,1,41.43-27.727A44.756,44.756,0,0,1,1404.61,275.289Z" transform="translate(-1346.258 -176.068)" fill="#a5a5a5" opacity="0.584" style="isolation:isolate"/><path d="M1405.106,274.792a44.756,44.756,0,1,1,41.43-27.727A44.756,44.756,0,0,1,1405.106,274.792Z" transform="translate(-1346.523 -175.803)" fill="#a3a3a3" opacity="0.594" style="isolation:isolate"/><path d="M1405.6,274.3a44.757,44.757,0,1,1,41.43-27.727A44.756,44.756,0,0,1,1405.6,274.3Z" transform="translate(-1346.788 -175.539)" fill="#a2a2a2" opacity="0.604" style="isolation:isolate"/><path d="M1406.1,273.8a44.757,44.757,0,1,1,41.43-27.727A44.756,44.756,0,0,1,1406.1,273.8Z" transform="translate(-1347.053 -175.273)" fill="#a0a0a0" opacity="0.614" style="isolation:isolate"/><path d="M1406.594,273.3a44.758,44.758,0,1,1,41.43-27.727A44.757,44.757,0,0,1,1406.594,273.3Z" transform="translate(-1347.317 -175.005)" fill="#9f9f9f" opacity="0.624" style="isolation:isolate"/><path d="M1407.088,272.8a44.758,44.758,0,1,1,41.43-27.727A44.756,44.756,0,0,1,1407.088,272.8Z" transform="translate(-1347.581 -174.74)" fill="#9d9d9d" opacity="0.634" style="isolation:isolate"/><path d="M1407.586,272.309a44.758,44.758,0,1,1,41.43-27.727A44.757,44.757,0,0,1,1407.586,272.309Z" transform="translate(-1347.847 -174.475)" fill="#9c9c9c" opacity="0.644" style="isolation:isolate"/><path d="M1408.085,271.816a44.756,44.756,0,1,1,41.43-27.727A44.756,44.756,0,0,1,1408.085,271.816Z" transform="translate(-1348.115 -174.214)" fill="#9a9a9a" opacity="0.653" style="isolation:isolate"/><path d="M1408.58,271.319a44.756,44.756,0,1,1,41.43-27.727A44.756,44.756,0,0,1,1408.58,271.319Z" transform="translate(-1348.378 -173.948)" fill="#999" opacity="0.663" style="isolation:isolate"/><path d="M1409.075,270.822a44.757,44.757,0,1,1,41.43-27.727A44.757,44.757,0,0,1,1409.075,270.822Z" transform="translate(-1348.642 -173.682)" fill="#979797" opacity="0.673" style="isolation:isolate"/><path d="M1409.572,270.326A44.757,44.757,0,1,1,1451,242.6,44.756,44.756,0,0,1,1409.572,270.326Z" transform="translate(-1348.908 -173.417)" fill="#959595" opacity="0.683" style="isolation:isolate"/><path d="M1410.069,269.83A44.757,44.757,0,1,1,1451.5,242.1,44.756,44.756,0,0,1,1410.069,269.83Z" transform="translate(-1349.174 -173.152)" fill="#949494" opacity="0.693" style="isolation:isolate"/><path d="M1410.563,269.335a44.758,44.758,0,1,1,41.43-27.727A44.757,44.757,0,0,1,1410.563,269.335Z" transform="translate(-1349.437 -172.887)" fill="#929292" opacity="0.703" style="isolation:isolate"/><path d="M1411.06,268.835a44.758,44.758,0,1,1,41.43-27.727A44.757,44.757,0,0,1,1411.06,268.835Z" transform="translate(-1349.703 -172.62)" fill="#919191" opacity="0.713" style="isolation:isolate"/><path d="M1411.556,268.339a44.758,44.758,0,1,1,41.43-27.727A44.757,44.757,0,0,1,1411.556,268.339Z" transform="translate(-1349.968 -172.355)" fill="#8f8f8f" opacity="0.723" style="isolation:isolate"/><path d="M1412.049,267.843a44.758,44.758,0,1,1,41.43-27.727A44.757,44.757,0,0,1,1412.049,267.843Z" transform="translate(-1350.231 -172.09)" fill="#8e8e8e" opacity="0.733" style="isolation:isolate"/><path d="M1412.55,267.349a44.757,44.757,0,1,1,41.43-27.727A44.756,44.756,0,0,1,1412.55,267.349Z" transform="translate(-1350.499 -171.827)" fill="#8c8c8c" opacity="0.743" style="isolation:isolate"/><path d="M1413.047,266.853a44.756,44.756,0,1,1,41.43-27.727A44.756,44.756,0,0,1,1413.047,266.853Z" transform="translate(-1350.765 -171.562)" fill="#8b8b8b" opacity="0.752" style="isolation:isolate"/><path d="M1413.542,266.357a44.756,44.756,0,1,1,41.43-27.727A44.756,44.756,0,0,1,1413.542,266.357Z" transform="translate(-1351.029 -171.297)" fill="#898989" opacity="0.762" style="isolation:isolate"/><path d="M1414.037,265.859a44.757,44.757,0,1,1,41.43-27.727A44.757,44.757,0,0,1,1414.037,265.859Z" transform="translate(-1351.293 -171.031)" fill="#888" opacity="0.772" style="isolation:isolate"/><path d="M1414.536,265.364a44.756,44.756,0,1,1,41.43-27.727A44.756,44.756,0,0,1,1414.536,265.364Z" transform="translate(-1351.561 -170.767)" fill="#868686" opacity="0.782" style="isolation:isolate"/><path d="M1415.03,264.86a44.758,44.758,0,1,1,41.43-27.727A44.757,44.757,0,0,1,1415.03,264.86Z" transform="translate(-1351.823 -170.496)" fill="#858585" opacity="0.792" style="isolation:isolate"/><path d="M1415.526,264.369a44.758,44.758,0,1,1,41.43-27.727A44.756,44.756,0,0,1,1415.526,264.369Z" transform="translate(-1352.088 -170.234)" fill="#838383" opacity="0.802" style="isolation:isolate"/><path d="M1416.022,263.873a44.758,44.758,0,1,1,41.43-27.727A44.757,44.757,0,0,1,1416.022,263.873Z" transform="translate(-1352.353 -169.969)" fill="#828282" opacity="0.812" style="isolation:isolate"/><path d="M1416.52,263.379a44.757,44.757,0,1,1,41.43-27.727A44.756,44.756,0,0,1,1416.52,263.379Z" transform="translate(-1352.62 -169.706)" fill="gray" opacity="0.822" style="isolation:isolate"/><path d="M1417.012,262.883a44.757,44.757,0,1,1,41.43-27.727A44.756,44.756,0,0,1,1417.012,262.883Z" transform="translate(-1352.883 -169.441)" fill="gray" opacity="0.832" style="isolation:isolate"/><path d="M1417.513,262.387a44.757,44.757,0,1,1,41.43-27.727A44.756,44.756,0,0,1,1417.513,262.387Z" transform="translate(-1353.15 -169.176)" fill="#7e7e7e" opacity="0.842" style="isolation:isolate"/><path d="M1418.007,261.89a44.757,44.757,0,1,1,41.43-27.727A44.757,44.757,0,0,1,1418.007,261.89Z" transform="translate(-1353.414 -168.91)" fill="#7d7d7d" opacity="0.851" style="isolation:isolate"/><path d="M1418.5,261.394a44.756,44.756,0,1,1,41.43-27.727A44.756,44.756,0,0,1,1418.5,261.394Z" transform="translate(-1353.68 -168.646)" fill="#7b7b7b" opacity="0.861" style="isolation:isolate"/><path d="M1419,260.895a44.758,44.758,0,1,1,41.43-27.727A44.756,44.756,0,0,1,1419,260.895Z" transform="translate(-1353.943 -168.378)" fill="#7a7a7a" opacity="0.871" style="isolation:isolate"/><path d="M1419.5,260.4a44.758,44.758,0,1,1,41.43-27.727A44.757,44.757,0,0,1,1419.5,260.4Z" transform="translate(-1354.208 -168.113)" fill="#787878" opacity="0.881" style="isolation:isolate"/><path d="M1419.99,259.9a44.757,44.757,0,1,1,41.427-27.725A44.756,44.756,0,0,1,1419.99,259.9Z" transform="translate(-1354.472 -167.846)" fill="#777" opacity="0.891" style="isolation:isolate"/><path d="M1420.492,259.41a44.756,44.756,0,1,1,41.43-27.727A44.756,44.756,0,0,1,1420.492,259.41Z" transform="translate(-1354.742 -167.587)" fill="#757575" opacity="0.901" style="isolation:isolate"/><path d="M1420.985,258.912a44.757,44.757,0,1,1,41.43-27.727A44.756,44.756,0,0,1,1420.985,258.912Z" transform="translate(-1355.005 -167.32)" fill="#747474" opacity="0.911" style="isolation:isolate"/><path d="M1421.481,258.416a44.757,44.757,0,1,1,41.43-27.727A44.757,44.757,0,0,1,1421.481,258.416Z" transform="translate(-1355.269 -167.055)" fill="#727272" opacity="0.921" style="isolation:isolate"/><path d="M1421.973,257.921a44.756,44.756,0,1,1,41.43-27.727A44.756,44.756,0,0,1,1421.973,257.921Z" transform="translate(-1355.533 -166.791)" fill="#717171" opacity="0.931" style="isolation:isolate"/><path d="M1422.474,257.425A44.757,44.757,0,1,1,1463.9,229.7,44.756,44.756,0,0,1,1422.474,257.425Z" transform="translate(-1355.8 -166.526)" fill="#6f6f6f" opacity="0.941" style="isolation:isolate"/><path d="M1422.969,256.925A44.758,44.758,0,1,1,1464.4,229.2,44.757,44.757,0,0,1,1422.969,256.925Z" transform="translate(-1356.064 -166.258)" fill="#6e6e6e" opacity="0.95" style="isolation:isolate"/><path d="M1423.465,256.429A44.758,44.758,0,1,1,1464.9,228.7,44.757,44.757,0,0,1,1423.465,256.429Z" transform="translate(-1356.329 -165.993)" fill="#6c6c6c" opacity="0.96" style="isolation:isolate"/><path d="M1423.961,255.933a44.758,44.758,0,1,1,41.43-27.727A44.757,44.757,0,0,1,1423.961,255.933Z" transform="translate(-1356.594 -165.728)" fill="#6b6b6b" opacity="0.97" style="isolation:isolate"/><path d="M1424.463,255.44a44.756,44.756,0,1,1,41.432-27.727A44.756,44.756,0,0,1,1424.463,255.44Z" transform="translate(-1356.865 -165.466)" fill="#696969" opacity="0.98" style="isolation:isolate"/><path d="M1424.956,254.94a44.757,44.757,0,1,1,41.43-27.727A44.756,44.756,0,0,1,1424.956,254.94Z" transform="translate(-1357.126 -165.198)" fill="#686868" opacity="0.99" style="isolation:isolate"/><path d="M1425.452,254.447a44.756,44.756,0,1,1,41.43-27.727A44.756,44.756,0,0,1,1425.452,254.447Z" transform="translate(-1357.391 -164.935)" fill="#666"/></g><path d="M1380.564,209.65a44.757,44.757,0,1,1,27.727,41.43A44.756,44.756,0,0,1,1380.564,209.65Z" transform="translate(-26.679 0)" fill="#fff"/><g transform="translate(1385.986 185.315)"><ellipse cx="12.692" cy="6.251" rx="12.692" ry="6.251" transform="translate(0 22.97)" fill="#ca6c52"/><g transform="translate(1.767 0)"><path d="M1470.463,268.77c-2.63,0-5.46-.838-5.46-2.679s2.83-2.679,5.46-2.679,5.459.838,5.459,2.679S1473.093,268.77,1470.463,268.77Zm0-3.708c-2.426,0-3.727.756-3.811,1.042.085.259,1.385,1.015,3.811,1.015s3.726-.756,3.81-1.043C1474.189,265.818,1472.889,265.062,1470.463,265.062Z" transform="translate(-1459.539 -237.92)" fill="#fff"/><path d="M1465.956,270.53c-4.552,0-9.39-1.49-9.39-4.251s4.838-4.251,9.39-4.251,9.39,1.49,9.39,4.251S1470.508,270.53,1465.956,270.53Zm0-6.851c-4.725,0-7.74,1.54-7.74,2.6s3.015,2.6,7.74,2.6,7.739-1.54,7.739-2.6S1470.68,263.678,1465.956,263.678Z" transform="translate(-1455.032 -237.181)" fill="#fff"/><path d="M1465.565,210.493a10.059,10.059,0,0,1,9.647,9.6,8.936,8.936,0,0,1-.729,4.208,41.663,41.663,0,0,1-6.471,10.126c-.76.945-1.552,1.863-2.3,2.814-.369.466-.641.621-1.1.062a70.166,70.166,0,0,1-7.609-10.42c-1.494-2.686-2.449-5.461-1.69-8.6C1456.45,213.552,1460.994,210.081,1465.565,210.493Zm4.475,10.057a4.929,4.929,0,0,0-4.95-4.907h-.012a4.915,4.915,0,1,0,4.961,4.906Z" transform="translate(-1454.217 -209.634)" fill="#fff"/><path d="M1464.194,237.539a1.581,1.581,0,0,1-1.168-.657l-.1-.115a70.4,70.4,0,0,1-7.6-10.43c-1.3-2.33-2.669-5.481-1.771-9.2,1.249-5.171,6.137-8.87,11.135-8.418a10.9,10.9,0,0,1,10.395,10.349,9.815,9.815,0,0,1-.795,4.612A42.666,42.666,0,0,1,1467.711,234c-.339.421-.683.836-1.028,1.251-.428.516-.856,1.032-1.272,1.558a1.609,1.609,0,0,1-1.206.732Zm-.3-27.2a9.435,9.435,0,0,0-8.727,7.191c-.6,2.5-.122,4.893,1.609,8.006a69,69,0,0,0,7.412,10.161c.4-.506.815-1,1.227-1.5.339-.409.679-.818,1.012-1.232a41.255,41.255,0,0,0,6.35-9.923,8.171,8.171,0,0,0,.668-3.836c-.451-5.067-3.778-8.376-8.9-8.837h0Q1464.219,210.338,1463.891,210.338Zm.265,15.012h-.019a5.74,5.74,0,0,1,0-11.479h.026a5.754,5.754,0,0,1,5.761,5.728v.007A5.775,5.775,0,0,1,1464.156,225.351Zm-.011-1.65h.008a4.122,4.122,0,0,0,4.118-4.1,4.119,4.119,0,1,0-4.131,4.1Z" transform="translate(-1453.273 -208.687)" fill="#666"/></g><path d="M1475.774,298.758a.825.825,0,0,1-.825-.825v-1.615a.825.825,0,1,1,1.65,0v1.615A.825.825,0,0,1,1475.774,298.758Zm0-4.039a.825.825,0,0,1-.825-.825v-1.615a.825.825,0,0,1,1.65,0v1.615A.825.825,0,0,1,1475.774,294.72Zm0-4.039a.825.825,0,0,1-.825-.825V288.24a.825.825,0,0,1,1.65,0v1.615A.825.825,0,0,1,1475.774,290.681Zm0-4.039a.825.825,0,0,1-.825-.825V284.2a.825.825,0,0,1,1.65,0v1.616A.825.825,0,0,1,1475.774,286.642Zm0-4.039a.825.825,0,0,1-.825-.825v-1.615a.825.825,0,0,1,1.65,0v1.615A.825.825,0,0,1,1475.774,282.6Z" transform="translate(-1463.084 -246.428)" fill="#666"/></g><path d="M1735.758,218.2l-37.429-37.429a52.862,52.862,0,1,0,74.845.013Z" transform="translate(-188.173 -8.459)" fill="#ca6c52"/><g transform="translate(1479.513 164.934)" opacity="0.55"><path d="M1694.973,304.567a44.757,44.757,0,1,1,41.43-27.727A44.756,44.756,0,0,1,1694.973,304.567Z" transform="translate(-1650.258 -191.709)" fill="rgba(255,255,255,0)"/><path d="M1695.467,304.065a44.757,44.757,0,1,1,41.43-27.727A44.756,44.756,0,0,1,1695.467,304.065Z" transform="translate(-1650.521 -191.44)" fill="#fcfcfc" opacity="0.01" style="isolation:isolate"/><path d="M1695.962,303.573a44.757,44.757,0,1,1,41.43-27.727A44.756,44.756,0,0,1,1695.962,303.573Z" transform="translate(-1650.785 -191.177)" fill="#fbfbfb" opacity="0.02" style="isolation:isolate"/><path d="M1696.46,303.077a44.756,44.756,0,1,1,41.43-27.727A44.756,44.756,0,0,1,1696.46,303.077Z" transform="translate(-1651.052 -190.912)" fill="#f9f9f9" opacity="0.03" style="isolation:isolate"/><path d="M1696.956,302.581a44.756,44.756,0,1,1,41.43-27.727A44.756,44.756,0,0,1,1696.956,302.581Z" transform="translate(-1651.317 -190.647)" fill="#f8f8f8" opacity="0.04" style="isolation:isolate"/><path d="M1697.448,302.085a44.757,44.757,0,1,1,41.43-27.727A44.755,44.755,0,0,1,1697.448,302.085Z" transform="translate(-1651.58 -190.383)" fill="#f6f6f6" opacity="0.05" style="isolation:isolate"/><path d="M1697.948,301.586a44.758,44.758,0,1,1,41.43-27.727A44.757,44.757,0,0,1,1697.948,301.586Z" transform="translate(-1651.846 -190.115)" fill="#f5f5f5" opacity="0.059" style="isolation:isolate"/><path d="M1698.443,301.09a44.758,44.758,0,1,1,41.43-27.727A44.757,44.757,0,0,1,1698.443,301.09Z" transform="translate(-1652.111 -189.85)" fill="#f3f3f3" opacity="0.069" style="isolation:isolate"/><path d="M1698.939,300.594a44.758,44.758,0,1,1,41.43-27.727A44.756,44.756,0,0,1,1698.939,300.594Z" transform="translate(-1652.376 -189.585)" fill="#f2f2f2" opacity="0.079" style="isolation:isolate"/><path d="M1699.437,300.1a44.757,44.757,0,1,1,41.43-27.727A44.756,44.756,0,0,1,1699.437,300.1Z" transform="translate(-1652.642 -189.322)" fill="#f0f0f0" opacity="0.089" style="isolation:isolate"/><path d="M1699.936,299.6a44.757,44.757,0,1,1,41.432-27.727A44.756,44.756,0,0,1,1699.936,299.6Z" transform="translate(-1652.91 -189.057)" fill="#efefef" opacity="0.099" style="isolation:isolate"/><path d="M1700.429,299.1a44.756,44.756,0,1,1,41.43-27.727A44.756,44.756,0,0,1,1700.429,299.1Z" transform="translate(-1653.172 -188.79)" fill="#ededed" opacity="0.109" style="isolation:isolate"/><path d="M1700.925,298.611a44.757,44.757,0,1,1,41.43-27.727A44.756,44.756,0,0,1,1700.925,298.611Z" transform="translate(-1653.437 -188.527)" fill="#ececec" opacity="0.119" style="isolation:isolate"/><path d="M1701.422,298.115a44.756,44.756,0,1,1,41.43-27.727A44.756,44.756,0,0,1,1701.422,298.115Z" transform="translate(-1653.703 -188.262)" fill="#eaeaea" opacity="0.129" style="isolation:isolate"/><path d="M1701.92,297.616a44.758,44.758,0,1,1,41.43-27.727A44.757,44.757,0,0,1,1701.92,297.616Z" transform="translate(-1653.968 -187.994)" fill="#e9e9e9" opacity="0.139" style="isolation:isolate"/><path d="M1702.413,297.12a44.758,44.758,0,1,1,41.43-27.727A44.756,44.756,0,0,1,1702.413,297.12Z" transform="translate(-1654.231 -187.729)" fill="#e7e7e7" opacity="0.149" style="isolation:isolate"/><path d="M1702.909,296.624a44.758,44.758,0,1,1,41.43-27.727A44.757,44.757,0,0,1,1702.909,296.624Z" transform="translate(-1654.496 -187.464)" fill="#e6e6e6" opacity="0.158" style="isolation:isolate"/><path d="M1703.407,296.13a44.756,44.756,0,1,1,41.43-27.727A44.756,44.756,0,0,1,1703.407,296.13Z" transform="translate(-1654.763 -187.201)" fill="#e4e4e4" opacity="0.168" style="isolation:isolate"/><path d="M1703.9,295.634a44.756,44.756,0,1,1,41.43-27.727A44.756,44.756,0,0,1,1703.9,295.634Z" transform="translate(-1655.028 -186.936)" fill="#e3e3e3" opacity="0.178" style="isolation:isolate"/><path d="M1704.4,295.138a44.756,44.756,0,1,1,41.43-27.727A44.755,44.755,0,0,1,1704.4,295.138Z" transform="translate(-1655.293 -186.671)" fill="#e1e1e1" opacity="0.188" style="isolation:isolate"/><path d="M1704.9,294.642a44.757,44.757,0,1,1,41.43-27.727A44.756,44.756,0,0,1,1704.9,294.642Z" transform="translate(-1655.558 -186.406)" fill="#e0e0e0" opacity="0.198" style="isolation:isolate"/><path d="M1705.392,294.142a44.756,44.756,0,1,1,41.43-27.727A44.756,44.756,0,0,1,1705.392,294.142Z" transform="translate(-1655.823 -186.139)" fill="#dedede" opacity="0.208" style="isolation:isolate"/><path d="M1705.886,293.646a44.758,44.758,0,1,1,41.43-27.727A44.756,44.756,0,0,1,1705.886,293.646Z" transform="translate(-1656.086 -185.873)" fill="#ddd" opacity="0.218" style="isolation:isolate"/><path d="M1706.382,293.15a44.758,44.758,0,1,1,41.43-27.727A44.757,44.757,0,0,1,1706.382,293.15Z" transform="translate(-1656.351 -185.608)" fill="#dbdbdb" opacity="0.228" style="isolation:isolate"/><path d="M1706.882,292.654a44.758,44.758,0,1,1,41.43-27.727A44.757,44.757,0,0,1,1706.882,292.654Z" transform="translate(-1656.619 -185.343)" fill="#dadada" opacity="0.238" style="isolation:isolate"/><path d="M1707.378,292.161a44.757,44.757,0,1,1,41.43-27.727A44.756,44.756,0,0,1,1707.378,292.161Z" transform="translate(-1656.885 -185.082)" fill="#d8d8d8" opacity="0.248" style="isolation:isolate"/><path d="M1707.872,291.663a44.756,44.756,0,1,1,41.43-27.727A44.756,44.756,0,0,1,1707.872,291.663Z" transform="translate(-1657.147 -184.815)" fill="#d7d7d7" opacity="0.257" style="isolation:isolate"/><path d="M1708.369,291.168a44.757,44.757,0,1,1,41.43-27.727A44.756,44.756,0,0,1,1708.369,291.168Z" transform="translate(-1657.413 -184.551)" fill="#d5d5d5" opacity="0.267" style="isolation:isolate"/><path d="M1708.865,290.672a44.756,44.756,0,1,1,41.43-27.727A44.756,44.756,0,0,1,1708.865,290.672Z" transform="translate(-1657.678 -184.286)" fill="#d4d4d4" opacity="0.277" style="isolation:isolate"/><path d="M1709.361,290.176a44.756,44.756,0,1,1,41.43-27.727A44.756,44.756,0,0,1,1709.361,290.176Z" transform="translate(-1657.943 -184.021)" fill="#d2d2d2" opacity="0.287" style="isolation:isolate"/><path d="M1709.856,289.676a44.758,44.758,0,1,1,41.43-27.727A44.757,44.757,0,0,1,1709.856,289.676Z" transform="translate(-1658.207 -183.753)" fill="#d1d1d1" opacity="0.297" style="isolation:isolate"/><path d="M1710.353,289.179a44.758,44.758,0,1,1,41.43-27.727A44.756,44.756,0,0,1,1710.353,289.179Z" transform="translate(-1658.472 -183.487)" fill="#cfcfcf" opacity="0.307" style="isolation:isolate"/><path d="M1710.848,288.684a44.758,44.758,0,1,1,41.43-27.727A44.757,44.757,0,0,1,1710.848,288.684Z" transform="translate(-1658.737 -183.223)" fill="#cecece" opacity="0.317" style="isolation:isolate"/><path d="M1711.348,288.191a44.757,44.757,0,1,1,41.43-27.727A44.756,44.756,0,0,1,1711.348,288.191Z" transform="translate(-1659.005 -182.961)" fill="#ccc" opacity="0.327" style="isolation:isolate"/><path d="M1711.845,287.694a44.757,44.757,0,1,1,41.43-27.727A44.756,44.756,0,0,1,1711.845,287.694Z" transform="translate(-1659.27 -182.695)" fill="#cacaca" opacity="0.337" style="isolation:isolate"/><path d="M1712.339,287.2a44.756,44.756,0,1,1,41.43-27.727A44.756,44.756,0,0,1,1712.339,287.2Z" transform="translate(-1659.534 -182.43)" fill="#c9c9c9" opacity="0.347" style="isolation:isolate"/><path d="M1712.836,286.7a44.757,44.757,0,1,1,41.43-27.727A44.756,44.756,0,0,1,1712.836,286.7Z" transform="translate(-1659.8 -182.165)" fill="#c7c7c7" opacity="0.356" style="isolation:isolate"/><path d="M1713.331,286.206a44.757,44.757,0,1,1,41.43-27.727A44.756,44.756,0,0,1,1713.331,286.206Z" transform="translate(-1660.064 -181.9)" fill="#c6c6c6" opacity="0.366" style="isolation:isolate"/><path d="M1713.826,285.707a44.758,44.758,0,1,1,41.43-27.727A44.757,44.757,0,0,1,1713.826,285.707Z" transform="translate(-1660.328 -181.632)" fill="#c4c4c4" opacity="0.376" style="isolation:isolate"/><path d="M1714.323,285.211a44.759,44.759,0,1,1,41.43-27.727A44.757,44.757,0,0,1,1714.323,285.211Z" transform="translate(-1660.593 -181.368)" fill="#c3c3c3" opacity="0.386" style="isolation:isolate"/><path d="M1714.818,284.715a44.758,44.758,0,1,1,41.43-27.727A44.756,44.756,0,0,1,1714.818,284.715Z" transform="translate(-1660.858 -181.103)" fill="#c1c1c1" opacity="0.396" style="isolation:isolate"/><path d="M1715.314,284.218a44.758,44.758,0,1,1,41.43-27.727A44.757,44.757,0,0,1,1715.314,284.218Z" transform="translate(-1661.123 -180.837)" fill="silver" opacity="0.406" style="isolation:isolate"/><path d="M1715.814,283.724A44.756,44.756,0,1,1,1757.244,256,44.756,44.756,0,0,1,1715.814,283.724Z" transform="translate(-1661.39 -180.574)" fill="#bebebe" opacity="0.416" style="isolation:isolate"/><path d="M1716.309,283.228a44.757,44.757,0,1,1,41.43-27.727A44.756,44.756,0,0,1,1716.309,283.228Z" transform="translate(-1661.655 -180.309)" fill="#bdbdbd" opacity="0.426" style="isolation:isolate"/><path d="M1716.8,282.731A44.757,44.757,0,1,1,1758.235,255,44.757,44.757,0,0,1,1716.8,282.731Z" transform="translate(-1661.919 -180.043)" fill="#bbb" opacity="0.436" style="isolation:isolate"/><path d="M1717.3,282.236a44.757,44.757,0,1,1,41.43-27.727A44.756,44.756,0,0,1,1717.3,282.236Z" transform="translate(-1662.185 -179.779)" fill="#bababa" opacity="0.446" style="isolation:isolate"/><path d="M1717.8,281.74a44.757,44.757,0,1,1,41.43-27.727A44.756,44.756,0,0,1,1717.8,281.74Z" transform="translate(-1662.451 -179.515)" fill="#b8b8b8" opacity="0.455" style="isolation:isolate"/><path d="M1718.292,281.241a44.758,44.758,0,1,1,41.43-27.727A44.756,44.756,0,0,1,1718.292,281.241Z" transform="translate(-1662.714 -179.247)" fill="#b7b7b7" opacity="0.465" style="isolation:isolate"/><path d="M1718.788,280.745a44.758,44.758,0,1,1,41.43-27.727A44.757,44.757,0,0,1,1718.788,280.745Z" transform="translate(-1662.979 -178.982)" fill="#b5b5b5" opacity="0.475" style="isolation:isolate"/><path d="M1719.285,280.249a44.757,44.757,0,1,1,41.43-27.725A44.757,44.757,0,0,1,1719.285,280.249Z" transform="translate(-1663.244 -178.717)" fill="#b4b4b4" opacity="0.485" style="isolation:isolate"/><path d="M1719.782,279.754a44.757,44.757,0,1,1,41.43-27.727A44.756,44.756,0,0,1,1719.782,279.754Z" transform="translate(-1663.51 -178.454)" fill="#b2b2b2" opacity="0.495" style="isolation:isolate"/><path d="M1720.278,279.259a44.757,44.757,0,1,1,41.43-27.727A44.756,44.756,0,0,1,1720.278,279.259Z" transform="translate(-1663.775 -178.189)" fill="#b1b1b1" opacity="0.505" style="isolation:isolate"/><path d="M1720.775,278.762a44.756,44.756,0,1,1,41.43-27.727A44.756,44.756,0,0,1,1720.775,278.762Z" transform="translate(-1664.041 -177.924)" fill="#afafaf" opacity="0.515" style="isolation:isolate"/><path d="M1721.271,278.266a44.756,44.756,0,1,1,41.43-27.727A44.756,44.756,0,0,1,1721.271,278.266Z" transform="translate(-1664.306 -177.659)" fill="#aeaeae" opacity="0.525" style="isolation:isolate"/><path d="M1721.768,277.77a44.757,44.757,0,1,1,41.43-27.727A44.756,44.756,0,0,1,1721.768,277.77Z" transform="translate(-1664.571 -177.394)" fill="#acacac" opacity="0.535" style="isolation:isolate"/><path d="M1722.262,277.271a44.758,44.758,0,1,1,41.43-27.727A44.757,44.757,0,0,1,1722.262,277.271Z" transform="translate(-1664.834 -177.126)" fill="#ababab" opacity="0.545" style="isolation:isolate"/><path d="M1722.758,276.775a44.758,44.758,0,1,1,41.43-27.727A44.757,44.757,0,0,1,1722.758,276.775Z" transform="translate(-1665.099 -176.861)" fill="#a9a9a9" opacity="0.554" style="isolation:isolate"/><path d="M1723.254,276.279a44.758,44.758,0,1,1,41.43-27.727A44.756,44.756,0,0,1,1723.254,276.279Z" transform="translate(-1665.364 -176.596)" fill="#a8a8a8" opacity="0.564" style="isolation:isolate"/><path d="M1723.753,275.786a44.757,44.757,0,1,1,41.43-27.727A44.756,44.756,0,0,1,1723.753,275.786Z" transform="translate(-1665.632 -176.334)" fill="#a6a6a6" opacity="0.574" style="isolation:isolate"/><path d="M1724.248,275.289a44.757,44.757,0,1,1,41.43-27.727A44.756,44.756,0,0,1,1724.248,275.289Z" transform="translate(-1665.896 -176.068)" fill="#a5a5a5" opacity="0.584" style="isolation:isolate"/><path d="M1724.744,274.792a44.756,44.756,0,1,1,41.43-27.727A44.756,44.756,0,0,1,1724.744,274.792Z" transform="translate(-1666.161 -175.803)" fill="#a3a3a3" opacity="0.594" style="isolation:isolate"/><path d="M1725.241,274.3a44.757,44.757,0,1,1,41.43-27.727A44.756,44.756,0,0,1,1725.241,274.3Z" transform="translate(-1666.426 -175.539)" fill="#a2a2a2" opacity="0.604" style="isolation:isolate"/><path d="M1725.737,273.8a44.757,44.757,0,1,1,41.43-27.727A44.756,44.756,0,0,1,1725.737,273.8Z" transform="translate(-1666.691 -175.273)" fill="#a0a0a0" opacity="0.614" style="isolation:isolate"/><path d="M1726.232,273.3a44.758,44.758,0,1,1,41.43-27.727A44.757,44.757,0,0,1,1726.232,273.3Z" transform="translate(-1666.955 -175.005)" fill="#9f9f9f" opacity="0.624" style="isolation:isolate"/><path d="M1726.726,272.8a44.758,44.758,0,1,1,41.43-27.727A44.756,44.756,0,0,1,1726.726,272.8Z" transform="translate(-1667.219 -174.74)" fill="#9d9d9d" opacity="0.634" style="isolation:isolate"/><path d="M1727.224,272.309a44.758,44.758,0,1,1,41.43-27.727A44.757,44.757,0,0,1,1727.224,272.309Z" transform="translate(-1667.485 -174.475)" fill="#9c9c9c" opacity="0.644" style="isolation:isolate"/><path d="M1727.723,271.816a44.756,44.756,0,1,1,41.43-27.727A44.756,44.756,0,0,1,1727.723,271.816Z" transform="translate(-1667.753 -174.214)" fill="#9a9a9a" opacity="0.653" style="isolation:isolate"/><path d="M1728.218,271.319a44.756,44.756,0,1,1,41.43-27.727A44.756,44.756,0,0,1,1728.218,271.319Z" transform="translate(-1668.016 -173.948)" fill="#999" opacity="0.663" style="isolation:isolate"/><path d="M1728.713,270.822a44.757,44.757,0,1,1,41.43-27.727A44.757,44.757,0,0,1,1728.713,270.822Z" transform="translate(-1668.28 -173.682)" fill="#979797" opacity="0.673" style="isolation:isolate"/><path d="M1729.21,270.326a44.757,44.757,0,1,1,41.43-27.727A44.756,44.756,0,0,1,1729.21,270.326Z" transform="translate(-1668.546 -173.417)" fill="#959595" opacity="0.683" style="isolation:isolate"/><path d="M1729.707,269.83a44.757,44.757,0,1,1,41.43-27.727A44.756,44.756,0,0,1,1729.707,269.83Z" transform="translate(-1668.812 -173.152)" fill="#949494" opacity="0.693" style="isolation:isolate"/><path d="M1730.2,269.335a44.758,44.758,0,1,1,41.43-27.727A44.757,44.757,0,0,1,1730.2,269.335Z" transform="translate(-1669.075 -172.887)" fill="#929292" opacity="0.703" style="isolation:isolate"/><path d="M1730.7,268.835a44.758,44.758,0,1,1,41.43-27.727A44.757,44.757,0,0,1,1730.7,268.835Z" transform="translate(-1669.341 -172.62)" fill="#919191" opacity="0.713" style="isolation:isolate"/><path d="M1731.194,268.339a44.758,44.758,0,1,1,41.43-27.727A44.757,44.757,0,0,1,1731.194,268.339Z" transform="translate(-1669.606 -172.355)" fill="#8f8f8f" opacity="0.723" style="isolation:isolate"/><path d="M1731.688,267.843a44.758,44.758,0,1,1,41.43-27.727A44.757,44.757,0,0,1,1731.688,267.843Z" transform="translate(-1669.869 -172.09)" fill="#8e8e8e" opacity="0.733" style="isolation:isolate"/><path d="M1732.188,267.349a44.757,44.757,0,1,1,41.43-27.727A44.756,44.756,0,0,1,1732.188,267.349Z" transform="translate(-1670.137 -171.827)" fill="#8c8c8c" opacity="0.743" style="isolation:isolate"/><path d="M1732.685,266.853a44.756,44.756,0,1,1,41.43-27.727A44.756,44.756,0,0,1,1732.685,266.853Z" transform="translate(-1670.403 -171.562)" fill="#8b8b8b" opacity="0.752" style="isolation:isolate"/><path d="M1733.18,266.357a44.756,44.756,0,1,1,41.43-27.727A44.756,44.756,0,0,1,1733.18,266.357Z" transform="translate(-1670.667 -171.297)" fill="#898989" opacity="0.762" style="isolation:isolate"/><path d="M1733.675,265.859a44.757,44.757,0,1,1,41.43-27.727A44.757,44.757,0,0,1,1733.675,265.859Z" transform="translate(-1670.931 -171.031)" fill="#888" opacity="0.772" style="isolation:isolate"/><path d="M1734.174,265.364a44.756,44.756,0,1,1,41.43-27.727A44.756,44.756,0,0,1,1734.174,265.364Z" transform="translate(-1671.199 -170.767)" fill="#868686" opacity="0.782" style="isolation:isolate"/><path d="M1734.667,264.86a44.758,44.758,0,1,1,41.43-27.727A44.757,44.757,0,0,1,1734.667,264.86Z" transform="translate(-1671.461 -170.496)" fill="#858585" opacity="0.792" style="isolation:isolate"/><path d="M1735.164,264.369a44.758,44.758,0,1,1,41.43-27.727A44.756,44.756,0,0,1,1735.164,264.369Z" transform="translate(-1671.726 -170.234)" fill="#838383" opacity="0.802" style="isolation:isolate"/><path d="M1735.66,263.873a44.758,44.758,0,1,1,41.43-27.727A44.757,44.757,0,0,1,1735.66,263.873Z" transform="translate(-1671.991 -169.969)" fill="#828282" opacity="0.812" style="isolation:isolate"/><path d="M1736.158,263.379a44.757,44.757,0,1,1,41.43-27.727A44.756,44.756,0,0,1,1736.158,263.379Z" transform="translate(-1672.258 -169.706)" fill="gray" opacity="0.822" style="isolation:isolate"/><path d="M1736.65,262.883a44.757,44.757,0,1,1,41.43-27.727A44.756,44.756,0,0,1,1736.65,262.883Z" transform="translate(-1672.521 -169.441)" fill="gray" opacity="0.832" style="isolation:isolate"/><path d="M1737.151,262.387a44.757,44.757,0,1,1,41.43-27.727A44.756,44.756,0,0,1,1737.151,262.387Z" transform="translate(-1672.788 -169.176)" fill="#7e7e7e" opacity="0.842" style="isolation:isolate"/><path d="M1737.645,261.89a44.757,44.757,0,1,1,41.43-27.727A44.757,44.757,0,0,1,1737.645,261.89Z" transform="translate(-1673.052 -168.91)" fill="#7d7d7d" opacity="0.851" style="isolation:isolate"/><path d="M1738.142,261.394a44.756,44.756,0,1,1,41.43-27.727A44.756,44.756,0,0,1,1738.142,261.394Z" transform="translate(-1673.318 -168.646)" fill="#7b7b7b" opacity="0.861" style="isolation:isolate"/><path d="M1738.637,260.895a44.758,44.758,0,1,1,41.43-27.727A44.756,44.756,0,0,1,1738.637,260.895Z" transform="translate(-1673.582 -168.378)" fill="#7a7a7a" opacity="0.871" style="isolation:isolate"/><path d="M1739.133,260.4a44.758,44.758,0,1,1,41.43-27.727A44.757,44.757,0,0,1,1739.133,260.4Z" transform="translate(-1673.847 -168.113)" fill="#787878" opacity="0.881" style="isolation:isolate"/><path d="M1739.628,259.9a44.758,44.758,0,1,1,41.427-27.725A44.757,44.757,0,0,1,1739.628,259.9Z" transform="translate(-1674.11 -167.846)" fill="#777" opacity="0.891" style="isolation:isolate"/><path d="M1740.13,259.41a44.756,44.756,0,1,1,41.43-27.727A44.756,44.756,0,0,1,1740.13,259.41Z" transform="translate(-1674.38 -167.587)" fill="#757575" opacity="0.901" style="isolation:isolate"/><path d="M1740.623,258.912a44.757,44.757,0,1,1,41.43-27.727A44.756,44.756,0,0,1,1740.623,258.912Z" transform="translate(-1674.642 -167.32)" fill="#747474" opacity="0.911" style="isolation:isolate"/><path d="M1741.119,258.416a44.757,44.757,0,1,1,41.43-27.727A44.757,44.757,0,0,1,1741.119,258.416Z" transform="translate(-1674.907 -167.055)" fill="#727272" opacity="0.921" style="isolation:isolate"/><path d="M1741.611,257.921a44.756,44.756,0,1,1,41.43-27.727A44.756,44.756,0,0,1,1741.611,257.921Z" transform="translate(-1675.171 -166.791)" fill="#717171" opacity="0.931" style="isolation:isolate"/><path d="M1742.112,257.425a44.757,44.757,0,1,1,41.43-27.727A44.756,44.756,0,0,1,1742.112,257.425Z" transform="translate(-1675.438 -166.526)" fill="#6f6f6f" opacity="0.941" style="isolation:isolate"/><path d="M1742.607,256.925a44.758,44.758,0,1,1,41.43-27.727A44.757,44.757,0,0,1,1742.607,256.925Z" transform="translate(-1675.702 -166.258)" fill="#6e6e6e" opacity="0.95" style="isolation:isolate"/><path d="M1743.1,256.429a44.758,44.758,0,1,1,41.43-27.727A44.757,44.757,0,0,1,1743.1,256.429Z" transform="translate(-1675.967 -165.993)" fill="#6c6c6c" opacity="0.96" style="isolation:isolate"/><path d="M1743.6,255.933a44.758,44.758,0,1,1,41.43-27.727A44.757,44.757,0,0,1,1743.6,255.933Z" transform="translate(-1676.232 -165.728)" fill="#6b6b6b" opacity="0.97" style="isolation:isolate"/><path d="M1744.1,255.44a44.756,44.756,0,1,1,41.432-27.727A44.756,44.756,0,0,1,1744.1,255.44Z" transform="translate(-1676.502 -165.466)" fill="#696969" opacity="0.98" style="isolation:isolate"/><path d="M1744.594,254.94a44.757,44.757,0,1,1,41.43-27.727A44.756,44.756,0,0,1,1744.594,254.94Z" transform="translate(-1676.764 -165.198)" fill="#686868" opacity="0.99" style="isolation:isolate"/><path d="M1745.09,254.447a44.756,44.756,0,1,1,41.43-27.727A44.756,44.756,0,0,1,1745.09,254.447Z" transform="translate(-1677.029 -164.935)" fill="#666"/></g><path d="M1700.2,209.65a44.757,44.757,0,1,1,27.727,41.43A44.756,44.756,0,0,1,1700.2,209.65Z" transform="translate(-197.424 0)" fill="#fff"/><g transform="translate(1527.408 195.174)"><circle cx="5.334" cy="5.334" r="5.334" transform="translate(14.856 9.044)" fill="#ca6c52"/><path d="M1785.913,259.621h-.028a9.012,9.012,0,0,1-.007-18.024h.041a9.034,9.034,0,0,1,9.05,9v.007A9.07,9.07,0,0,1,1785.913,259.621Zm-.017-1.65h.015a7.417,7.417,0,0,0,7.408-7.374,7.384,7.384,0,0,0-7.383-7.349h-.033a7.362,7.362,0,1,0-.014,14.723Z" transform="translate(-1765.791 -236.126)" fill="#666"/><path d="M1759.668,258.824a.825.825,0,0,1-.577-.234,19.851,19.851,0,0,1-6.013-13.745,20.355,20.355,0,0,1,6-14.587.825.825,0,1,1,1.161,1.173,18.688,18.688,0,0,0-5.515,13.384,18.2,18.2,0,0,0,5.516,12.593.825.825,0,0,1-.576,1.416Z" transform="translate(-1753.078 -229.941)" fill="#666"/><path d="M1824.715,258.8a.825.825,0,0,1-.58-1.411,18.418,18.418,0,0,0,.127-26.017l-.113-.113a.825.825,0,0,1,1.16-1.173l.124.124a20.047,20.047,0,0,1-.137,28.352A.822.822,0,0,1,1824.715,258.8Z" transform="translate(-1790.905 -229.851)" fill="#666"/><path d="M1816.636,259.361a.825.825,0,0,1-.579-1.413l.078-.077a13.1,13.1,0,0,0-.07-18.522.825.825,0,0,1,1.163-1.172,14.746,14.746,0,0,1,.081,20.853l-.094.094A.825.825,0,0,1,1816.636,259.361Z" transform="translate(-1786.589 -234.171)" fill="#666"/><path d="M1769.53,259.376a.824.824,0,0,1-.577-.235,14.6,14.6,0,0,1-4.423-10.111,14.972,14.972,0,0,1,4.416-10.732.825.825,0,0,1,1.161,1.173A13.307,13.307,0,0,0,1766.18,249a12.954,12.954,0,0,0,3.926,8.959.825.825,0,0,1-.576,1.416Z" transform="translate(-1759.195 -234.236)" fill="#666"/><path d="M1816.636,259.639a.825.825,0,0,1-.58-1.412,13.095,13.095,0,0,0,.09-18.519l-.062-.062.562-.606.583-.583.091.091a14.745,14.745,0,0,1-.1,20.851A.822.822,0,0,1,1816.636,259.639Z" transform="translate(-1786.589 -234.448)" fill="#666"/><g transform="translate(18.128 12.439)"><path d="M1795.245,260.63a.822.822,0,0,1-.584-.242l-2.424-2.425a.825.825,0,1,1,1.167-1.167l2.424,2.425a.825.825,0,0,1-.584,1.409Z" transform="translate(-1791.995 -256.555)" fill="#fff"/><path d="M1792.82,260.63a.825.825,0,0,1-.583-1.409l2.424-2.425a.825.825,0,1,1,1.167,1.167l-2.424,2.425A.823.823,0,0,1,1792.82,260.63Z" transform="translate(-1791.995 -256.555)" fill="#fff"/></g></g><g transform="translate(1514.969 300.871)" style="isolation:isolate"><text transform="translate(3.61 9)" font-size="8" font-family="SegoeUI, Segoe UI" letter-spacing="0.075em" style="isolation:isolate"><tspan x="0" y="0">Lorem ipsum </tspan></text><text transform="translate(0 19.062)" font-size="8" font-family="SegoeUI, Segoe UI" letter-spacing="0.075em" style="isolation:isolate"><tspan x="0" y="0">dolor sit amet, </tspan></text><text transform="translate(3.76 29.123)" font-size="8" font-family="SegoeUI, Segoe UI" letter-spacing="0.075em" style="isolation:isolate"><tspan x="0" y="0">consectetuer </tspan></text><text transform="translate(0.314 39.185)" font-size="8" font-family="SegoeUI, Segoe UI" letter-spacing="0.075em" style="isolation:isolate"><tspan x="0" y="0">adipiscing elit,</tspan></text></g><g transform="translate(1367.213 300.871)" style="isolation:isolate"><text transform="translate(3.61 9)" font-size="8" font-family="SegoeUI, Segoe UI" letter-spacing="0.075em" style="isolation:isolate"><tspan x="0" y="0">Lorem ipsum </tspan></text><text transform="translate(0 19.062)" font-size="8" font-family="SegoeUI, Segoe UI" letter-spacing="0.075em" style="isolation:isolate"><tspan x="0" y="0">dolor sit amet, </tspan></text><text transform="translate(3.76 29.123)" font-size="8" font-family="SegoeUI, Segoe UI" letter-spacing="0.075em" style="isolation:isolate"><tspan x="0" y="0">consectetuer </tspan></text><text transform="translate(0.314 39.185)" font-size="8" font-family="SegoeUI, Segoe UI" letter-spacing="0.075em" style="isolation:isolate"><tspan x="0" y="0">adipiscing elit,</tspan></text></g></g><path d="M73.628-563.043V-267.1c0,5.148-1.665,9.36-3.7,9.36H0" transform="translate(291.838 2611.795)" fill="none" stroke="#707070" stroke-linecap="round" stroke-linejoin="round" stroke-width="2"/><g transform="translate(-4627.072 -2717.68)"><path d="M549.213,420.823l-37.584-37.584a53.081,53.081,0,1,0,75.155.013Z" transform="translate(4292.295 4641.507)" fill="#7faad7"/><g transform="translate(4773.072 5017.259)" opacity="0.55" style="mix-blend-mode:multiply;isolation:isolate"><path d="M500.769,515.144a44.941,44.941,0,1,1,41.6-27.842A44.981,44.981,0,0,1,500.769,515.144Z" transform="translate(-455.787 -401.738)" fill="#fff" opacity="0"/><path d="M501.379,514.534a44.942,44.942,0,1,1,41.6-27.842A44.981,44.981,0,0,1,501.379,514.534Z" transform="translate(-456.165 -401.36)" fill="#fdfdfd" opacity="0.01"/><path d="M501.989,513.924a44.942,44.942,0,1,1,41.6-27.842A44.981,44.981,0,0,1,501.989,513.924Z" transform="translate(-456.543 -400.982)" fill="#fcfcfc" opacity="0.02"/><path d="M502.6,513.314a44.942,44.942,0,1,1,41.6-27.842A44.981,44.981,0,0,1,502.6,513.314Z" transform="translate(-456.921 -400.604)" fill="#fafafa" opacity="0.03"/><path d="M503.209,512.7a44.942,44.942,0,1,1,41.6-27.842A44.981,44.981,0,0,1,503.209,512.7Z" transform="translate(-457.299 -400.226)" fill="#f9f9f9" opacity="0.04"/><path d="M503.82,512.094a44.941,44.941,0,1,1,41.6-27.842A44.981,44.981,0,0,1,503.82,512.094Z" transform="translate(-457.677 -399.848)" fill="#f7f7f7" opacity="0.05"/><path d="M504.43,511.484a44.942,44.942,0,1,1,41.6-27.842A44.981,44.981,0,0,1,504.43,511.484Z" transform="translate(-458.055 -399.471)" fill="#f6f6f6" opacity="0.059"/><path d="M505.04,510.874a44.942,44.942,0,1,1,41.6-27.842A44.981,44.981,0,0,1,505.04,510.874Z" transform="translate(-458.433 -399.093)" fill="#f4f4f4" opacity="0.069"/><path d="M505.65,510.263a44.942,44.942,0,1,1,41.6-27.842A44.981,44.981,0,0,1,505.65,510.263Z" transform="translate(-458.811 -398.714)" fill="#f3f3f3" opacity="0.079"/><path d="M506.26,509.653a44.942,44.942,0,1,1,41.6-27.842A44.981,44.981,0,0,1,506.26,509.653Z" transform="translate(-459.189 -398.336)" fill="#f1f1f1" opacity="0.089"/><path d="M506.87,509.043a44.941,44.941,0,1,1,41.6-27.842A44.981,44.981,0,0,1,506.87,509.043Z" transform="translate(-459.567 -397.958)" fill="#f0f0f0" opacity="0.099"/><path d="M507.48,508.433a44.942,44.942,0,1,1,41.6-27.842A44.981,44.981,0,0,1,507.48,508.433Z" transform="translate(-459.945 -397.58)" fill="#eee" opacity="0.109"/><path d="M508.09,507.823a44.942,44.942,0,1,1,41.6-27.842A44.981,44.981,0,0,1,508.09,507.823Z" transform="translate(-460.323 -397.202)" fill="#ededed" opacity="0.119"/><path d="M508.7,507.213a44.942,44.942,0,1,1,41.6-27.842A44.981,44.981,0,0,1,508.7,507.213Z" transform="translate(-460.701 -396.824)" fill="#ebebeb" opacity="0.129"/><path d="M509.311,506.6a44.942,44.942,0,1,1,41.6-27.842A44.981,44.981,0,0,1,509.311,506.6Z" transform="translate(-461.079 -396.446)" fill="#eaeaea" opacity="0.139"/><path d="M509.921,505.993a44.942,44.942,0,1,1,41.6-27.842A44.981,44.981,0,0,1,509.921,505.993Z" transform="translate(-461.457 -396.068)" fill="#e8e8e8" opacity="0.149"/><path d="M510.531,505.382a44.942,44.942,0,1,1,41.6-27.842A44.981,44.981,0,0,1,510.531,505.382Z" transform="translate(-461.835 -395.69)" fill="#e7e7e7" opacity="0.158"/><path d="M511.141,504.772a44.941,44.941,0,1,1,41.6-27.842A44.981,44.981,0,0,1,511.141,504.772Z" transform="translate(-462.213 -395.312)" fill="#e5e5e5" opacity="0.168"/><path d="M511.751,504.162a44.942,44.942,0,1,1,41.6-27.842A44.981,44.981,0,0,1,511.751,504.162Z" transform="translate(-462.591 -394.934)" fill="#e4e4e4" opacity="0.178"/><path d="M512.361,503.552a44.942,44.942,0,1,1,41.6-27.842A44.981,44.981,0,0,1,512.361,503.552Z" transform="translate(-462.969 -394.556)" fill="#e2e2e2" opacity="0.188"/><path d="M512.971,502.942a44.942,44.942,0,1,1,41.6-27.842A44.981,44.981,0,0,1,512.971,502.942Z" transform="translate(-463.347 -394.178)" fill="#e1e1e1" opacity="0.198"/><path d="M513.581,502.332a44.942,44.942,0,1,1,41.6-27.842A44.981,44.981,0,0,1,513.581,502.332Z" transform="translate(-463.726 -393.8)" fill="#dfdfdf" opacity="0.208"/><path d="M514.192,501.722a44.943,44.943,0,1,1,41.6-27.842A44.981,44.981,0,0,1,514.192,501.722Z" transform="translate(-464.103 -393.422)" fill="#dedede" opacity="0.218"/><path d="M514.8,501.112a44.943,44.943,0,1,1,41.6-27.842A44.981,44.981,0,0,1,514.8,501.112Z" transform="translate(-464.481 -393.044)" fill="#dcdcdc" opacity="0.228"/><path d="M515.412,500.5a44.942,44.942,0,1,1,41.6-27.842A44.981,44.981,0,0,1,515.412,500.5Z" transform="translate(-464.859 -392.666)" fill="#dbdbdb" opacity="0.238"/><path d="M516.022,499.891a44.941,44.941,0,1,1,41.6-27.842A44.981,44.981,0,0,1,516.022,499.891Z" transform="translate(-465.237 -392.288)" fill="#d9d9d9" opacity="0.248"/><path d="M516.632,499.281a44.942,44.942,0,1,1,41.6-27.842A44.981,44.981,0,0,1,516.632,499.281Z" transform="translate(-465.615 -391.91)" fill="#d8d8d8" opacity="0.257"/><path d="M517.242,498.671a44.942,44.942,0,1,1,41.6-27.842A44.981,44.981,0,0,1,517.242,498.671Z" transform="translate(-465.993 -391.532)" fill="#d6d6d6" opacity="0.267"/><path d="M517.852,498.061a44.942,44.942,0,1,1,41.6-27.842A44.981,44.981,0,0,1,517.852,498.061Z" transform="translate(-466.371 -391.154)" fill="#d5d5d5" opacity="0.277"/><path d="M518.462,497.451a44.942,44.942,0,1,1,41.6-27.842A44.981,44.981,0,0,1,518.462,497.451Z" transform="translate(-466.749 -390.776)" fill="#d3d3d3" opacity="0.287"/><path d="M519.073,496.841A44.942,44.942,0,1,1,560.674,469,44.981,44.981,0,0,1,519.073,496.841Z" transform="translate(-467.128 -390.398)" fill="#d2d2d2" opacity="0.297"/><path d="M519.683,496.231a44.942,44.942,0,1,1,41.6-27.842A44.981,44.981,0,0,1,519.683,496.231Z" transform="translate(-467.506 -390.02)" fill="#d0d0d0" opacity="0.307"/><path d="M520.293,495.62a44.942,44.942,0,1,1,41.6-27.842A44.981,44.981,0,0,1,520.293,495.62Z" transform="translate(-467.883 -389.642)" fill="#cfcfcf" opacity="0.317"/><path d="M520.9,495.01a44.941,44.941,0,1,1,41.6-27.842A44.981,44.981,0,0,1,520.9,495.01Z" transform="translate(-468.261 -389.264)" fill="#cdcdcd" opacity="0.327"/><path d="M521.513,494.4a44.942,44.942,0,1,1,41.6-27.842A44.981,44.981,0,0,1,521.513,494.4Z" transform="translate(-468.639 -388.886)" fill="#cbcbcb" opacity="0.337"/><path d="M522.123,493.79a44.942,44.942,0,1,1,41.6-27.842A44.981,44.981,0,0,1,522.123,493.79Z" transform="translate(-469.017 -388.508)" fill="#cacaca" opacity="0.347"/><path d="M522.733,493.18a44.942,44.942,0,1,1,41.6-27.842A44.981,44.981,0,0,1,522.733,493.18Z" transform="translate(-469.395 -388.13)" fill="#c8c8c8" opacity="0.356"/><path d="M523.343,492.57a44.942,44.942,0,1,1,41.6-27.842A44.981,44.981,0,0,1,523.343,492.57Z" transform="translate(-469.773 -387.752)" fill="#c7c7c7" opacity="0.366"/><path d="M523.954,491.96a44.942,44.942,0,1,1,41.6-27.842A44.981,44.981,0,0,1,523.954,491.96Z" transform="translate(-470.152 -387.374)" fill="#c5c5c5" opacity="0.376"/><path d="M524.564,491.35a44.942,44.942,0,1,1,41.6-27.842A44.981,44.981,0,0,1,524.564,491.35Z" transform="translate(-470.53 -386.996)" fill="#c4c4c4" opacity="0.386"/><path d="M525.174,490.739a44.942,44.942,0,1,1,41.6-27.842A44.981,44.981,0,0,1,525.174,490.739Z" transform="translate(-470.908 -386.618)" fill="#c2c2c2" opacity="0.396"/><path d="M525.784,490.129a44.942,44.942,0,1,1,41.6-27.842A44.981,44.981,0,0,1,525.784,490.129Z" transform="translate(-471.286 -386.24)" fill="#c1c1c1" opacity="0.406"/><path d="M526.394,489.519A44.942,44.942,0,1,1,568,461.677,44.981,44.981,0,0,1,526.394,489.519Z" transform="translate(-471.663 -385.862)" fill="#bfbfbf" opacity="0.416"/><path d="M527,488.909a44.942,44.942,0,1,1,41.6-27.842A44.981,44.981,0,0,1,527,488.909Z" transform="translate(-472.041 -385.484)" fill="#bebebe" opacity="0.426"/><path d="M527.614,488.3a44.942,44.942,0,1,1,41.6-27.842A44.981,44.981,0,0,1,527.614,488.3Z" transform="translate(-472.419 -385.106)" fill="#bcbcbc" opacity="0.436"/><path d="M528.224,487.689a44.942,44.942,0,1,1,41.6-27.842A44.981,44.981,0,0,1,528.224,487.689Z" transform="translate(-472.797 -384.728)" fill="#bbb" opacity="0.446"/><path d="M528.835,487.079a44.941,44.941,0,1,1,41.6-27.842A44.981,44.981,0,0,1,528.835,487.079Z" transform="translate(-473.176 -384.35)" fill="#b9b9b9" opacity="0.455"/><path d="M529.445,486.469a44.942,44.942,0,1,1,41.6-27.842A44.981,44.981,0,0,1,529.445,486.469Z" transform="translate(-473.554 -383.972)" fill="#b8b8b8" opacity="0.465"/><path d="M530.055,485.859a44.942,44.942,0,1,1,41.6-27.842A44.981,44.981,0,0,1,530.055,485.859Z" transform="translate(-473.932 -383.594)" fill="#b6b6b6" opacity="0.475"/><path d="M530.665,485.248a44.942,44.942,0,1,1,41.6-27.842A44.981,44.981,0,0,1,530.665,485.248Z" transform="translate(-474.31 -383.216)" fill="#b5b5b5" opacity="0.485"/><path d="M531.275,484.638a44.941,44.941,0,1,1,41.6-27.842A44.981,44.981,0,0,1,531.275,484.638Z" transform="translate(-474.688 -382.838)" fill="#b3b3b3" opacity="0.495"/><path d="M531.885,484.028a44.941,44.941,0,1,1,41.6-27.842A44.981,44.981,0,0,1,531.885,484.028Z" transform="translate(-475.066 -382.46)" fill="#b2b2b2" opacity="0.505"/><path d="M532.495,483.418a44.942,44.942,0,1,1,41.6-27.842A44.981,44.981,0,0,1,532.495,483.418Z" transform="translate(-475.443 -382.082)" fill="#b0b0b0" opacity="0.515"/><path d="M533.1,482.808a44.942,44.942,0,1,1,41.6-27.842A44.981,44.981,0,0,1,533.1,482.808Z" transform="translate(-475.821 -381.704)" fill="#afafaf" opacity="0.525"/><path d="M533.715,482.2a44.942,44.942,0,1,1,41.6-27.842A44.981,44.981,0,0,1,533.715,482.2Z" transform="translate(-476.2 -381.326)" fill="#adadad" opacity="0.535"/><path d="M534.326,481.588a44.942,44.942,0,1,1,41.6-27.842A44.981,44.981,0,0,1,534.326,481.588Z" transform="translate(-476.578 -380.948)" fill="#acacac" opacity="0.545"/><path d="M534.936,480.978a44.942,44.942,0,1,1,41.6-27.842A44.981,44.981,0,0,1,534.936,480.978Z" transform="translate(-476.956 -380.57)" fill="#aaa" opacity="0.554"/><path d="M535.546,480.367a44.942,44.942,0,1,1,41.6-27.842A44.981,44.981,0,0,1,535.546,480.367Z" transform="translate(-477.334 -380.191)" fill="#a9a9a9" opacity="0.564"/><path d="M536.156,479.757a44.941,44.941,0,1,1,41.6-27.842A44.981,44.981,0,0,1,536.156,479.757Z" transform="translate(-477.712 -379.813)" fill="#a7a7a7" opacity="0.574"/><path d="M536.766,479.147a44.942,44.942,0,1,1,41.6-27.842A44.981,44.981,0,0,1,536.766,479.147Z" transform="translate(-478.09 -379.435)" fill="#a6a6a6" opacity="0.584"/><path d="M537.376,478.537a44.942,44.942,0,1,1,41.6-27.842A44.981,44.981,0,0,1,537.376,478.537Z" transform="translate(-478.468 -379.058)" fill="#a4a4a4" opacity="0.594"/><path d="M537.986,477.927a44.942,44.942,0,1,1,41.6-27.842A44.981,44.981,0,0,1,537.986,477.927Z" transform="translate(-478.846 -378.68)" fill="#a3a3a3" opacity="0.604"/><path d="M538.6,477.317a44.942,44.942,0,1,1,41.6-27.842A44.981,44.981,0,0,1,538.6,477.317Z" transform="translate(-479.224 -378.302)" fill="#a1a1a1" opacity="0.614"/><path d="M539.207,476.707a44.942,44.942,0,1,1,41.6-27.842A44.981,44.981,0,0,1,539.207,476.707Z" transform="translate(-479.602 -377.924)" fill="#a0a0a0" opacity="0.624"/><path d="M539.817,476.1a44.943,44.943,0,1,1,41.6-27.842A44.981,44.981,0,0,1,539.817,476.1Z" transform="translate(-479.98 -377.546)" fill="#9e9e9e" opacity="0.634"/><path d="M540.427,475.486a44.942,44.942,0,1,1,41.6-27.842A44.981,44.981,0,0,1,540.427,475.486Z" transform="translate(-480.358 -377.167)" fill="#9d9d9d" opacity="0.644"/><path d="M541.037,474.876a44.941,44.941,0,1,1,41.6-27.842A44.981,44.981,0,0,1,541.037,474.876Z" transform="translate(-480.736 -376.789)" fill="#9b9b9b" opacity="0.653"/><path d="M541.647,474.266a44.942,44.942,0,1,1,41.6-27.842A44.981,44.981,0,0,1,541.647,474.266Z" transform="translate(-481.114 -376.411)" fill="#9a9a9a" opacity="0.663"/><path d="M542.257,473.656a44.942,44.942,0,1,1,41.6-27.842A44.981,44.981,0,0,1,542.257,473.656Z" transform="translate(-481.492 -376.033)" fill="#989898" opacity="0.673"/><path d="M542.867,473.046a44.942,44.942,0,1,1,41.6-27.842A44.981,44.981,0,0,1,542.867,473.046Z" transform="translate(-481.87 -375.656)" fill="#969696" opacity="0.683"/><path d="M543.477,472.436a44.942,44.942,0,1,1,41.6-27.842A44.981,44.981,0,0,1,543.477,472.436Z" transform="translate(-482.248 -375.278)" fill="#959595" opacity="0.693"/><path d="M544.088,471.826a44.942,44.942,0,1,1,41.6-27.842A44.981,44.981,0,0,1,544.088,471.826Z" transform="translate(-482.626 -374.9)" fill="#939393" opacity="0.703"/><path d="M544.7,471.216a44.942,44.942,0,1,1,41.6-27.842A44.981,44.981,0,0,1,544.7,471.216Z" transform="translate(-483.004 -374.522)" fill="#929292" opacity="0.713"/><path d="M545.308,470.605a44.942,44.942,0,1,1,41.6-27.842A44.981,44.981,0,0,1,545.308,470.605Z" transform="translate(-483.382 -374.143)" fill="#909090" opacity="0.723"/><path d="M545.918,470a44.942,44.942,0,1,1,41.6-27.842A44.981,44.981,0,0,1,545.918,470Z" transform="translate(-483.76 -373.765)" fill="#8f8f8f" opacity="0.733"/><path d="M546.528,469.385a44.942,44.942,0,1,1,41.6-27.842A44.981,44.981,0,0,1,546.528,469.385Z" transform="translate(-484.138 -373.387)" fill="#8d8d8d" opacity="0.743"/><path d="M547.138,468.775a44.942,44.942,0,1,1,41.6-27.842A44.981,44.981,0,0,1,547.138,468.775Z" transform="translate(-484.516 -373.009)" fill="#8c8c8c" opacity="0.752"/><path d="M547.748,468.165a44.942,44.942,0,1,1,41.6-27.842A44.981,44.981,0,0,1,547.748,468.165Z" transform="translate(-484.894 -372.631)" fill="#8a8a8a" opacity="0.762"/><path d="M548.358,467.555a44.942,44.942,0,1,1,41.6-27.842A44.981,44.981,0,0,1,548.358,467.555Z" transform="translate(-485.272 -372.253)" fill="#898989" opacity="0.772"/><path d="M548.969,466.945a44.941,44.941,0,1,1,41.6-27.842A44.981,44.981,0,0,1,548.969,466.945Z" transform="translate(-485.65 -371.876)" fill="#878787" opacity="0.782"/><path d="M549.579,466.335a44.942,44.942,0,1,1,41.6-27.842A44.981,44.981,0,0,1,549.579,466.335Z" transform="translate(-486.028 -371.498)" fill="#868686" opacity="0.792"/><path d="M550.189,465.725a44.942,44.942,0,1,1,41.6-27.842A44.981,44.981,0,0,1,550.189,465.725Z" transform="translate(-486.406 -371.12)" fill="#848484" opacity="0.802"/><path d="M550.8,465.114a44.942,44.942,0,1,1,41.6-27.842A44.981,44.981,0,0,1,550.8,465.114Z" transform="translate(-486.784 -370.741)" fill="#838383" opacity="0.812"/><path d="M551.409,464.5a44.942,44.942,0,1,1,41.6-27.842A44.981,44.981,0,0,1,551.409,464.5Z" transform="translate(-487.162 -370.363)" fill="#818181" opacity="0.822"/><path d="M552.019,463.894a44.942,44.942,0,1,1,41.6-27.842A44.981,44.981,0,0,1,552.019,463.894Z" transform="translate(-487.54 -369.985)" fill="gray" opacity="0.832"/><path d="M552.629,463.284a44.942,44.942,0,1,1,41.6-27.842A44.981,44.981,0,0,1,552.629,463.284Z" transform="translate(-487.918 -369.607)" fill="#7e7e7e" opacity="0.842"/><path d="M553.239,462.674a44.942,44.942,0,1,1,41.6-27.842A44.981,44.981,0,0,1,553.239,462.674Z" transform="translate(-488.296 -369.229)" fill="#7d7d7d" opacity="0.851"/><path d="M553.849,462.064a44.942,44.942,0,1,1,41.6-27.842A44.981,44.981,0,0,1,553.849,462.064Z" transform="translate(-488.674 -368.851)" fill="#7b7b7b" opacity="0.861"/><path d="M554.46,461.454a44.942,44.942,0,1,1,41.6-27.842A44.981,44.981,0,0,1,554.46,461.454Z" transform="translate(-489.052 -368.473)" fill="#7a7a7a" opacity="0.871"/><path d="M555.07,460.844A44.942,44.942,0,1,1,596.671,433,44.981,44.981,0,0,1,555.07,460.844Z" transform="translate(-489.43 -368.095)" fill="#787878" opacity="0.881"/><path d="M555.68,460.233a44.942,44.942,0,1,1,41.6-27.842A44.981,44.981,0,0,1,555.68,460.233Z" transform="translate(-489.808 -367.717)" fill="#777" opacity="0.891"/><path d="M556.29,459.623a44.941,44.941,0,1,1,41.6-27.842A44.981,44.981,0,0,1,556.29,459.623Z" transform="translate(-490.186 -367.339)" fill="#757575" opacity="0.901"/><path d="M556.9,459.013a44.942,44.942,0,1,1,41.6-27.842A44.981,44.981,0,0,1,556.9,459.013Z" transform="translate(-490.564 -366.961)" fill="#747474" opacity="0.911"/><path d="M557.51,458.4a44.942,44.942,0,1,1,41.6-27.842A44.981,44.981,0,0,1,557.51,458.4Z" transform="translate(-490.942 -366.583)" fill="#727272" opacity="0.921"/><path d="M558.12,457.793a44.942,44.942,0,1,1,41.6-27.842A44.981,44.981,0,0,1,558.12,457.793Z" transform="translate(-491.32 -366.205)" fill="#717171" opacity="0.931"/><path d="M558.73,457.183a44.942,44.942,0,1,1,41.6-27.842A44.981,44.981,0,0,1,558.73,457.183Z" transform="translate(-491.699 -365.827)" fill="#6f6f6f" opacity="0.941"/><path d="M559.341,456.573a44.942,44.942,0,1,1,41.6-27.842A44.981,44.981,0,0,1,559.341,456.573Z" transform="translate(-492.076 -365.449)" fill="#6e6e6e" opacity="0.95"/><path d="M559.951,455.963a44.942,44.942,0,1,1,41.6-27.842A44.981,44.981,0,0,1,559.951,455.963Z" transform="translate(-492.454 -365.071)" fill="#6c6c6c" opacity="0.96"/><path d="M560.561,455.352a44.942,44.942,0,1,1,41.6-27.842A44.981,44.981,0,0,1,560.561,455.352Z" transform="translate(-492.832 -364.693)" fill="#6b6b6b" opacity="0.97"/><path d="M561.171,454.742a44.941,44.941,0,1,1,41.6-27.842A44.981,44.981,0,0,1,561.171,454.742Z" transform="translate(-493.21 -364.315)" fill="#696969" opacity="0.98"/><path d="M561.781,454.132a44.942,44.942,0,1,1,41.6-27.842A44.981,44.981,0,0,1,561.781,454.132Z" transform="translate(-493.588 -363.937)" fill="#686868" opacity="0.99"/><path d="M562.391,453.522a44.942,44.942,0,1,1,41.6-27.842A44.981,44.981,0,0,1,562.391,453.522Z" transform="translate(-493.966 -363.559)" fill="#666"/></g><path d="M517.409,408.541a44.942,44.942,0,1,1,27.842,41.6A44.981,44.981,0,0,1,517.409,408.541Z" transform="translate(4279.106 4653.7)" fill="#fff"/><g transform="translate(4806.492 5012.798)"><path d="M577.853,351.832l.01.629c-.541.008-1.088.026-1.625.052l-.03-.628C576.751,351.858,577.3,351.84,577.853,351.832Zm2.406.02c.547.017,1.1.044,1.644.08l-.041.628c-.537-.035-1.083-.062-1.623-.079Zm-6.451.207.06.627c-.535.052-1.078.113-1.612.183l-.081-.624C572.716,352.174,573.265,352.111,573.808,352.059Zm10.492.087c.544.062,1.094.134,1.635.214l-.092.622c-.534-.079-1.077-.15-1.614-.211Zm-14.5.468.112.619c-.531.1-1.066.2-1.593.315l-.132-.616C568.717,352.818,569.26,352.711,569.8,352.614Zm18.508.156c.537.106,1.079.223,1.612.347l-.143.613c-.525-.122-1.061-.238-1.591-.343Zm-22.46.727.162.608c-.52.139-1.045.289-1.561.445l-.183-.6C564.787,353.789,565.319,353.638,565.845,353.5Zm26.4.225c.525.15,1.056.311,1.577.479l-.193.6c-.515-.166-1.039-.325-1.557-.473Zm-30.267.98.212.593c-.506.181-1.018.374-1.52.573l-.232-.585C560.947,355.081,561.466,354.886,561.979,354.7Zm34.116.293c.51.193,1.025.4,1.532.608l-.242.581c-.5-.208-1.009-.41-1.512-.6Zm-37.87,1.228.26.573c-.492.223-.986.458-1.468.7l-.279-.564C557.226,356.687,557.726,356.45,558.224,356.223Zm41.6.359c.5.236.992.482,1.476.732l-.289.559c-.477-.247-.967-.49-1.457-.722Zm-45.217,1.466.306.55c-.471.263-.944.537-1.406.814l-.324-.539C553.651,358.591,554.13,358.314,554.607,358.047Zm48.8.422c.473.274.948.56,1.411.85l-.334.533c-.457-.286-.926-.568-1.393-.839Zm-52.258,1.693.35.523c-.449.3-.9.612-1.335.927l-.367-.511C550.244,360.782,550.7,360.467,551.152,360.162Zm55.677.482c.448.312.9.635,1.336.962l-.376.5c-.433-.323-.877-.643-1.319-.95Zm-58.948,1.909.392.492c-.422.336-.845.684-1.255,1.033l-.407-.479C547.026,363.245,547.454,362.893,547.882,362.553Zm62.178.538c.423.348.845.707,1.254,1.068l-.416.472c-.4-.356-.82-.711-1.237-1.055ZM544.816,365.2l.431.459c-.393.369-.786.75-1.167,1.131l-.445-.444C544.02,365.961,544.418,365.576,544.816,365.2Zm68.264.59q.29.282.576.568l-.446.444q-.282-.283-.568-.561Z" transform="translate(-543.634 -351.832)" fill="gray"/></g><g transform="translate(4820.749 5038.618)"><circle cx="20.543" cy="20.543" r="20.543" transform="translate(0 0)" fill="#7faad7"/><g transform="translate(10.105 9.889)"><path d="M954.327,455.775a.829.829,0,0,1-.431-1.538A10.073,10.073,0,0,1,963.9,454a.829.829,0,0,1-.791,1.456,8.416,8.416,0,0,0-8.358.2A.828.828,0,0,1,954.327,455.775Z" transform="translate(-948.78 -441.287)" fill="#fff"/><path d="M963.967,444.552a.819.819,0,0,1-.448-.132,13.03,13.03,0,0,0-13.723-.231.829.829,0,0,1-.852-1.422,14.689,14.689,0,0,1,15.473.261.828.828,0,0,1-.45,1.525Z" transform="translate(-946.142 -434.852)" fill="#fff"/><path d="M963.46,432.593a.824.824,0,0,1-.432-.122,17.838,17.838,0,0,0-18.364-.126.829.829,0,0,1-.846-1.425,19.5,19.5,0,0,1,20.075.138.829.829,0,0,1-.433,1.536Z" transform="translate(-943.412 -428.206)" fill="#fff"/><circle cx="2.339" cy="2.339" r="2.339" transform="translate(8.1 16.632)" fill="#fff"/></g></g></g></g></svg>